Eczar-Bold.ufo
<glyph name="hyphen" format="1">
  <advance width="500"/>
  <unicode hex="002D"/>
  <outline>
    <contour>
      <point x="419" y="233" type="line"/>
      <point x="444" y="282" type="line"/>
      <point x="379" y="365" type="line"/>
      <point x="59" y="365" type="line"/>
      <point x="34" y="316" type="line"/>
      <point x="99" y="233" type="line"/>
    </contour>
  </outline>
</glyph>
<glyph name="A" format="1">
  <advance width="772"/>
  <unicode hex="0041"/>
  <outline>
    <contour>
      <point x="38" y="0" type="line"/>
      <point x="181" y="0" type="line"/>
      <point x="421" y="612" type="line"/>
      <point x="301" y="637" type="line"/>
    </contour>
    <contour>
      <point x="245" y="624" type="line"/>
      <point x="489" y="0" type="line"/>
      <point x="740" y="0" type="line"/>
      <point x="463" y="674" type="line"/>
    </contour>
    <contour>
      <point x="195" y="252" type="line"/>
      <point x="195" y="152" type="line"/>
      <point x="539" y="152" type="line"/>
      <point x="539" y="252" type="line"/>
    </contour>
    <contour>
      <point x="50" y="77"/>
      <point x="17" y="56"/>
      <point x="-10" y="32" type="curve"/>
      <point x="-4" y="0" type="line"/>
      <point x="90" y="0" type="line"/>
      <point x="89" y="97" type="line"/>
    </contour>
    <contour>
      <point x="150" y="0" type="line"/>
      <point x="290" y="0" type="line"/>
      <point x="291" y="57" type="line"/>
      <point x="153" y="83" type="line"/>
    </contour>
    <contour>
      <point x="450" y="77"/>
      <point x="417" y="56"/>
      <point x="390" y="32" type="curve"/>
      <point x="396" y="0" type="line"/>
      <point x="490" y="0" type="line"/>
      <point x="489" y="97" type="line"/>
    </contour>
    <contour>
      <point x="641" y="0" type="line"/>
      <point x="781" y="0" type="line"/>
      <point x="782" y="57" type="line"/>
      <point x="644" y="83" type="line"/>
    </contour>
    <contour>
      <point x="751" y="0" type="move" name="ogonek"/>
    </contour>
    <contour>
      <point x="376" y="650" type="move" name="top"/>
    </contour>
  </outline>
</glyph>
<glyph name="B" format="1">
  <advance width="747"/>
  <unicode hex="0042"/>
  <outline>
    <contour>
      <point x="352" y="658"/>
      <point x="183" y="650"/>
      <point x="183" y="650" type="curve"/>
      <point x="342" y="536" type="line"/>
      <point x="413" y="542" type="line"/>
      <point x="441" y="529"/>
      <point x="457" y="491"/>
      <point x="457" y="454" type="curve" smooth="yes"/>
      <point x="457" y="411"/>
      <point x="435" y="368"/>
      <point x="386" y="368" type="curve" smooth="yes"/>
      <point x="318" y="368" type="line"/>
      <point x="318" y="293" type="line"/>
      <point x="400" y="301" type="line"/>
      <point x="531" y="324" type="line"/>
      <point x="636" y="330"/>
      <point x="687" y="426"/>
      <point x="687" y="495" type="curve" smooth="yes"/>
      <point x="687" y="575"/>
      <point x="618" y="658"/>
      <point x="444" y="658" type="curve"/>
    </contour>
    <contour>
      <point x="80" y="77"/>
      <point x="47" y="56"/>
      <point x="20" y="32" type="curve"/>
      <point x="26" y="0" type="line"/>
      <point x="120" y="0" type="line"/>
      <point x="119" y="97" type="line"/>
    </contour>
    <contour>
      <point x="105" y="650" type="line"/>
      <point x="105" y="0" type="line"/>
      <point x="344" y="0" type="line"/>
      <point x="344" y="650" type="line"/>
    </contour>
    <contour>
      <point x="342" y="332" type="line"/>
      <point x="325" y="294" type="line"/>
      <point x="404" y="294" type="line" smooth="yes"/>
      <point x="445" y="294"/>
      <point x="473" y="236"/>
      <point x="473" y="183" type="curve" smooth="yes"/>
      <point x="473" y="137"/>
      <point x="451" y="93"/>
      <point x="396" y="101" type="curve" smooth="yes"/>
      <point x="325" y="111" type="line"/>
      <point x="322" y="0" type="line"/>
      <point x="456" y="0" type="line" smooth="yes"/>
      <point x="637" y="0"/>
      <point x="722" y="93"/>
      <point x="722" y="182" type="curve" smooth="yes"/>
      <point x="722" y="273"/>
      <point x="635" y="361"/>
      <point x="474" y="348" type="curve"/>
    </contour>
    <contour>
      <point x="35" y="650" type="line"/>
      <point x="34" y="593" type="line"/>
      <point x="172" y="567" type="line"/>
      <point x="175" y="650" type="line"/>
    </contour>
  </outline>
</glyph>
<glyph name="C" format="1">
  <advance width="656"/>
  <unicode hex="0043"/>
  <outline>
    <contour>
      <point x="611" y="159" type="line"/>
      <point x="431" y="113" type="line"/>
      <point x="317" y="109"/>
      <point x="264" y="203"/>
      <point x="264" y="315" type="curve" smooth="yes"/>
      <point x="264" y="389"/>
      <point x="282" y="472"/>
      <point x="326" y="538" type="curve"/>
      <point x="439" y="527"/>
      <point x="518" y="502"/>
      <point x="591" y="441" type="curve"/>
      <point x="627" y="609" type="line"/>
      <point x="596" y="629"/>
      <point x="525" y="670"/>
      <point x="407" y="670" type="curve" smooth="yes"/>
      <point x="144" y="670"/>
      <point x="25" y="488"/>
      <point x="25" y="313" type="curve" smooth="yes"/>
      <point x="25" y="165"/>
      <point x="96" y="-24"/>
      <point x="427" y="-20" type="curve"/>
      <point x="646" y="66" type="line"/>
    </contour>
    <contour>
      <point x="611" y="401" type="line"/>
      <point x="626" y="450"/>
      <point x="631" y="560"/>
      <point x="626" y="609" type="curve"/>
      <point x="395" y="623" type="line"/>
      <point x="451" y="401" type="line"/>
    </contour>
    <contour>
      <point x="368" y="650" type="move" name="top"/>
    </contour>
    <contour>
      <point x="368" y="0" type="move" name="bottom"/>
    </contour>
  </outline>
</glyph>
<glyph name="D" format="1">
  <advance width="807"/>
  <unicode hex="0044"/>
  <outline>
    <contour>
      <point x="195" y="650" type="line"/>
      <point x="341" y="531" type="line"/>
      <point x="432" y="539" type="line"/>
      <point x="506" y="488"/>
      <point x="541" y="390"/>
      <point x="541" y="300" type="curve" smooth="yes"/>
      <point x="541" y="167"/>
      <point x="465" y="50"/>
      <point x="326" y="119" type="curve"/>
      <point x="330" y="0" type="line"/>
      <point x="452" y="0" type="line" smooth="yes"/>
      <point x="676" y="0"/>
      <point x="782" y="172"/>
      <point x="782" y="341" type="curve" smooth="yes"/>
      <point x="782" y="501"/>
      <point x="685" y="658"/>
      <point x="412" y="658" type="curve"/>
    </contour>
    <contour>
      <point x="80" y="77"/>
      <point x="47" y="56"/>
      <point x="20" y="32" type="curve"/>
      <point x="26" y="0" type="line"/>
      <point x="120" y="0" type="line"/>
      <point x="119" y="97" type="line"/>
    </contour>
    <contour>
      <point x="105" y="650" type="line"/>
      <point x="105" y="0" type="line"/>
      <point x="344" y="0" type="line"/>
      <point x="344" y="650" type="line"/>
    </contour>
    <contour>
      <point x="35" y="650" type="line"/>
      <point x="34" y="593" type="line"/>
      <point x="172" y="567" type="line"/>
      <point x="175" y="650" type="line"/>
    </contour>
    <contour>
      <point x="401" y="325" type="move" name="center"/>
    </contour>
    <contour>
      <point x="401" y="650" type="move" name="top"/>
    </contour>
  </outline>
</glyph>
<glyph name="E" format="1">
  <advance width="673"/>
  <unicode hex="0045"/>
  <outline>
    <contour>
      <point x="105" y="650" type="line"/>
      <point x="105" y="0" type="line"/>
      <point x="344" y="0" type="line"/>
      <point x="344" y="650" type="line"/>
    </contour>
    <contour>
      <point x="80" y="77"/>
      <point x="47" y="56"/>
      <point x="20" y="32" type="curve"/>
      <point x="26" y="0" type="line"/>
      <point x="120" y="0" type="line"/>
      <point x="119" y="97" type="line"/>
    </contour>
    <contour>
      <point x="306" y="116" type="line"/>
      <point x="231" y="0" type="line"/>
      <point x="643" y="0" type="line"/>
      <point x="642" y="139" type="line"/>
    </contour>
    <contour>
      <point x="301" y="369" type="line"/>
      <point x="301" y="280" type="line"/>
      <point x="541" y="270" type="line"/>
      <point x="541" y="387" type="line"/>
    </contour>
    <contour>
      <point x="223" y="650" type="line"/>
      <point x="298" y="544" type="line"/>
      <point x="634" y="521" type="line"/>
      <point x="646" y="650" type="line"/>
    </contour>
    <contour>
      <point x="29" y="650" type="line"/>
      <point x="28" y="593" type="line"/>
      <point x="166" y="567" type="line"/>
      <point x="169" y="650" type="line"/>
    </contour>
    <contour>
      <point x="446" y="0" type="line"/>
      <point x="645" y="0" type="line"/>
      <point x="650" y="49"/>
      <point x="654" y="146"/>
      <point x="651" y="228" type="curve"/>
      <point x="501" y="228" type="line"/>
    </contour>
    <contour>
      <point x="652" y="422" type="line"/>
      <point x="655" y="504"/>
      <point x="651" y="601"/>
      <point x="646" y="650" type="curve"/>
      <point x="447" y="650" type="line"/>
      <point x="502" y="422" type="line"/>
    </contour>
    <contour>
      <point x="692" y="0" type="move" name="ogonek"/>
    </contour>
    <contour>
      <point x="342" y="0" type="move" name="bottom"/>
    </contour>
    <contour>
      <point x="342" y="650" type="move" name="top"/>
    </contour>
  </outline>
</glyph>
<glyph name="F" format="1">
  <advance width="665"/>
  <unicode hex="0046"/>
  <outline>
    <contour>
      <point x="97" y="650" type="line"/>
      <point x="97" y="0" type="line"/>
      <point x="336" y="0" type="line"/>
      <point x="336" y="650" type="line"/>
    </contour>
    <contour>
      <point x="82" y="77"/>
      <point x="49" y="56"/>
      <point x="22" y="32" type="curve"/>
      <point x="28" y="0" type="line"/>
      <point x="122" y="0" type="line"/>
      <point x="121" y="97" type="line"/>
    </contour>
    <contour>
      <point x="322" y="0" type="line"/>
      <point x="462" y="0" type="line"/>
      <point x="463" y="57" type="line"/>
      <point x="325" y="83" type="line"/>
    </contour>
    <contour>
      <point x="313" y="339" type="line"/>
      <point x="313" y="250" type="line"/>
      <point x="553" y="240" type="line"/>
      <point x="553" y="357" type="line"/>
    </contour>
    <contour>
      <point x="235" y="650" type="line"/>
      <point x="310" y="544" type="line"/>
      <point x="631" y="521" type="line"/>
      <point x="638" y="650" type="line"/>
    </contour>
    <contour>
      <point x="21" y="650" type="line"/>
      <point x="20" y="593" type="line"/>
      <point x="158" y="567" type="line"/>
      <point x="161" y="650" type="line"/>
    </contour>
    <contour>
      <point x="644" y="422" type="line"/>
      <point x="647" y="504"/>
      <point x="643" y="601"/>
      <point x="638" y="650" type="curve"/>
      <point x="439" y="650" type="line"/>
      <point x="494" y="422" type="line"/>
    </contour>
  </outline>
</glyph>
<glyph name="G" format="1">
  <advance width="753"/>
  <unicode hex="0047"/>
  <outline>
    <contour>
      <point x="174" y="670"/>
      <point x="25" y="488"/>
      <point x="25" y="313" type="curve" smooth="yes"/>
      <point x="25" y="165"/>
      <point x="96" y="-24"/>
      <point x="427" y="-20" type="curve"/>
      <point x="666" y="66" type="line"/>
      <point x="621" y="139" type="line"/>
      <point x="561" y="124"/>
      <point x="493" y="110"/>
      <point x="431" y="113" type="curve" smooth="yes"/>
      <point x="317" y="119"/>
      <point x="264" y="203"/>
      <point x="264" y="315" type="curve" smooth="yes"/>
      <point x="264" y="389"/>
      <point x="282" y="472"/>
      <point x="326" y="538" type="curve"/>
      <point x="469" y="527"/>
      <point x="548" y="502"/>
      <point x="621" y="441" type="curve"/>
      <point x="657" y="609" type="line"/>
      <point x="626" y="629"/>
      <point x="555" y="670"/>
      <point x="437" y="670" type="curve" smooth="yes"/>
    </contour>
    <contour>
      <point x="372" y="274" type="line"/>
      <point x="399" y="250"/>
      <point x="432" y="229"/>
      <point x="471" y="209" type="curve"/>
      <point x="472" y="306" type="line"/>
      <point x="378" y="306" type="line"/>
    </contour>
    <contour>
      <point x="457" y="66" type="line"/>
      <point x="666" y="66" type="line"/>
      <point x="666" y="306" type="line"/>
      <point x="457" y="306" type="line"/>
    </contour>
    <contour>
      <point x="602" y="306" type="line"/>
      <point x="605" y="213" type="line"/>
      <point x="743" y="259" type="line"/>
      <point x="742" y="306" type="line"/>
    </contour>
    <contour>
      <point x="638" y="401" type="line"/>
      <point x="653" y="450"/>
      <point x="658" y="560"/>
      <point x="653" y="609" type="curve"/>
      <point x="422" y="623" type="line"/>
      <point x="478" y="401" type="line"/>
    </contour>
    <contour>
      <point x="382" y="650" type="move" name="top"/>
    </contour>
    <contour>
      <point x="382" y="0" type="move" name="bottom"/>
    </contour>
  </outline>
</glyph>
<glyph name="H" format="1">
  <advance width="881"/>
  <unicode hex="0048"/>
  <outline>
    <contour>
      <point x="166" y="567" type="line"/>
      <point x="169" y="650" type="line"/>
      <point x="29" y="650" type="line"/>
      <point x="28" y="593" type="line"/>
    </contour>
    <contour>
      <point x="105" y="650" type="line"/>
      <point x="105" y="0" type="line"/>
      <point x="344" y="0" type="line"/>
      <point x="344" y="650" type="line"/>
    </contour>
    <contour>
      <point x="329" y="650" type="line"/>
      <point x="330" y="553" type="line"/>
      <point x="369" y="573"/>
      <point x="402" y="594"/>
      <point x="429" y="618" type="curve"/>
      <point x="423" y="650" type="line"/>
    </contour>
    <contour>
      <point x="459" y="650" type="line"/>
      <point x="458" y="593" type="line"/>
      <point x="596" y="567" type="line"/>
      <point x="599" y="650" type="line"/>
    </contour>
    <contour>
      <point x="535" y="650" type="line"/>
      <point x="535" y="0" type="line"/>
      <point x="774" y="0" type="line"/>
      <point x="774" y="650" type="line"/>
    </contour>
    <contour>
      <point x="759" y="650" type="line"/>
      <point x="760" y="553" type="line"/>
      <point x="799" y="573"/>
      <point x="832" y="594"/>
      <point x="859" y="618" type="curve"/>
      <point x="853" y="650" type="line"/>
    </contour>
    <contour>
      <point x="275" y="382" type="line"/>
      <point x="275" y="262" type="line"/>
      <point x="609" y="262" type="line"/>
      <point x="609" y="382" type="line"/>
    </contour>
    <contour>
      <point x="80" y="77"/>
      <point x="47" y="56"/>
      <point x="20" y="32" type="curve"/>
      <point x="26" y="0" type="line"/>
      <point x="120" y="0" type="line"/>
      <point x="119" y="97" type="line"/>
    </contour>
    <contour>
      <point x="290" y="0" type="line"/>
      <point x="430" y="0" type="line"/>
      <point x="431" y="57" type="line"/>
      <point x="293" y="83" type="line"/>
    </contour>
    <contour>
      <point x="510" y="77"/>
      <point x="477" y="56"/>
      <point x="450" y="32" type="curve"/>
      <point x="456" y="0" type="line"/>
      <point x="550" y="0" type="line"/>
      <point x="549" y="97" type="line"/>
    </contour>
    <contour>
      <point x="720" y="0" type="line"/>
      <point x="860" y="0" type="line"/>
      <point x="861" y="57" type="line"/>
      <point x="723" y="83" type="line"/>
    </contour>
    <contour>
      <point x="441" y="325" type="move" name="center"/>
    </contour>
    <contour>
      <point x="441" y="650" type="move" name="top"/>
    </contour>
  </outline>
</glyph>
<glyph name="I" format="1">
  <advance width="451"/>
  <unicode hex="0049"/>
  <outline>
    <contour>
      <point x="344" y="0" type="line"/>
      <point x="344" y="650" type="line"/>
      <point x="105" y="650" type="line"/>
      <point x="105" y="0" type="line"/>
    </contour>
    <contour>
      <point x="120" y="0" type="line"/>
      <point x="119" y="97" type="line"/>
      <point x="80" y="77"/>
      <point x="47" y="56"/>
      <point x="20" y="32" type="curve"/>
      <point x="26" y="0" type="line"/>
    </contour>
    <contour>
      <point x="430" y="0" type="line"/>
      <point x="431" y="57" type="line"/>
      <point x="293" y="83" type="line"/>
      <point x="290" y="0" type="line"/>
    </contour>
    <contour>
      <point x="29" y="650" type="line"/>
      <point x="28" y="593" type="line"/>
      <point x="166" y="567" type="line"/>
      <point x="169" y="650" type="line"/>
    </contour>
    <contour>
      <point x="329" y="650" type="line"/>
      <point x="330" y="553" type="line"/>
      <point x="369" y="573"/>
      <point x="402" y="594"/>
      <point x="429" y="618" type="curve"/>
      <point x="423" y="650" type="line"/>
    </contour>
    <contour>
      <point x="379" y="0" type="move" name="ogonek"/>
    </contour>
    <contour>
      <point x="226" y="650" type="move" name="top"/>
    </contour>
  </outline>
</glyph>
<glyph name="J" format="1">
  <advance width="449"/>
  <unicode hex="004A"/>
  <outline>
    <contour>
      <point x="29" y="650" type="line"/>
      <point x="28" y="593" type="line"/>
      <point x="166" y="567" type="line"/>
      <point x="169" y="650" type="line"/>
    </contour>
    <contour>
      <point x="105" y="650" type="line"/>
      <point x="105" y="158" type="line" smooth="yes"/>
      <point x="105" y="-16"/>
      <point x="46" y="-78"/>
      <point x="-38" y="-131" type="curve"/>
      <point x="-4" y="-192" type="line"/>
      <point x="213" y="-134"/>
      <point x="344" y="-47"/>
      <point x="344" y="201" type="curve" smooth="yes"/>
      <point x="344" y="650" type="line"/>
    </contour>
    <contour>
      <point x="329" y="650" type="line"/>
      <point x="330" y="553" type="line"/>
      <point x="369" y="573"/>
      <point x="402" y="594"/>
      <point x="429" y="618" type="curve"/>
      <point x="423" y="650" type="line"/>
    </contour>
    <contour>
      <point x="230" y="650" type="move" name="top"/>
    </contour>
  </outline>
</glyph>
<glyph name="K" format="1">
  <advance width="837"/>
  <unicode hex="004B"/>
  <outline>
    <contour>
      <point x="592" y="650" type="line"/>
      <point x="263" y="297" type="line"/>
      <point x="287" y="168" type="line"/>
      <point x="692" y="591" type="line"/>
      <point x="702" y="650" type="line"/>
    </contour>
    <contour>
      <point x="80" y="77"/>
      <point x="47" y="56"/>
      <point x="20" y="32" type="curve"/>
      <point x="26" y="0" type="line"/>
      <point x="120" y="0" type="line"/>
      <point x="119" y="97" type="line"/>
    </contour>
    <contour>
      <point x="290" y="0" type="line"/>
      <point x="430" y="0" type="line"/>
      <point x="431" y="57" type="line"/>
      <point x="293" y="83" type="line"/>
    </contour>
    <contour>
      <point x="105" y="650" type="line"/>
      <point x="105" y="0" type="line"/>
      <point x="344" y="0" type="line"/>
      <point x="344" y="650" type="line"/>
    </contour>
    <contour>
      <point x="329" y="650" type="line"/>
      <point x="330" y="553" type="line"/>
      <point x="369" y="573"/>
      <point x="402" y="594"/>
      <point x="429" y="618" type="curve"/>
      <point x="423" y="650" type="line"/>
    </contour>
    <contour>
      <point x="469" y="650" type="line"/>
      <point x="468" y="593" type="line"/>
      <point x="606" y="567" type="line"/>
      <point x="609" y="650" type="line"/>
    </contour>
    <contour>
      <point x="640" y="650" type="line"/>
      <point x="641" y="553" type="line"/>
      <point x="680" y="571"/>
      <point x="743" y="594"/>
      <point x="770" y="618" type="curve"/>
      <point x="764" y="650" type="line"/>
    </contour>
    <contour>
      <point x="29" y="650" type="line"/>
      <point x="28" y="593" type="line"/>
      <point x="166" y="567" type="line"/>
      <point x="169" y="650" type="line"/>
    </contour>
    <contour>
      <point x="349" y="265" type="line"/>
      <point x="522" y="0" type="line"/>
      <point x="808" y="0" type="line"/>
      <point x="513" y="414" type="line"/>
    </contour>
    <contour>
      <point x="676" y="0" type="line"/>
      <point x="816" y="0" type="line"/>
      <point x="817" y="57" type="line"/>
      <point x="679" y="83" type="line"/>
    </contour>
    <contour>
      <point x="419" y="650" type="move" name="top"/>
    </contour>
    <contour>
      <point x="419" y="0" type="move" name="bottom"/>
    </contour>
  </outline>
</glyph>
<glyph name="L" format="1">
  <advance width="670"/>
  <unicode hex="004C"/>
  <outline>
    <contour>
      <point x="29" y="650" type="line"/>
      <point x="28" y="593" type="line"/>
      <point x="166" y="567" type="line"/>
      <point x="169" y="650" type="line"/>
    </contour>
    <contour>
      <point x="329" y="650" type="line"/>
      <point x="330" y="553" type="line"/>
      <point x="369" y="573"/>
      <point x="402" y="594"/>
      <point x="429" y="618" type="curve"/>
      <point x="423" y="650" type="line"/>
    </contour>
    <contour>
      <point x="80" y="77"/>
      <point x="47" y="56"/>
      <point x="20" y="32" type="curve"/>
      <point x="26" y="0" type="line"/>
      <point x="120" y="0" type="line"/>
      <point x="119" y="97" type="line"/>
    </contour>
    <contour>
      <point x="317" y="116" type="line"/>
      <point x="242" y="0" type="line"/>
      <point x="645" y="0" type="line"/>
      <point x="628" y="139" type="line"/>
    </contour>
    <contour>
      <point x="105" y="650" type="line"/>
      <point x="105" y="0" type="line"/>
      <point x="344" y="0" type="line"/>
      <point x="344" y="650" type="line"/>
    </contour>
    <contour>
      <point x="446" y="0" type="line"/>
      <point x="645" y="0" type="line"/>
      <point x="650" y="49"/>
      <point x="654" y="195"/>
      <point x="651" y="277" type="curve"/>
      <point x="501" y="277" type="line"/>
    </contour>
    <contour>
      <point x="247" y="650" type="move" name="top"/>
    </contour>
    <contour>
      <point x="347" y="0" type="move" name="bottom"/>
    </contour>
    <contour>
      <point x="674" y="650" type="move" name="topright"/>
    </contour>
  </outline>
</glyph>
<glyph name="M" format="1">
  <advance width="1035"/>
  <unicode hex="004D"/>
  <outline>
    <contour>
      <point x="29" y="650" type="line"/>
      <point x="28" y="593" type="line"/>
      <point x="166" y="567" type="line"/>
      <point x="169" y="650" type="line"/>
    </contour>
    <contour>
      <point x="115" y="650" type="line"/>
      <point x="105" y="0" type="line"/>
      <point x="264" y="0" type="line"/>
      <point x="264" y="225" type="line"/>
      <point x="245" y="498" type="line"/>
      <point x="386" y="650" type="line"/>
    </contour>
    <contour>
      <point x="80" y="77"/>
      <point x="47" y="56"/>
      <point x="20" y="32" type="curve"/>
      <point x="26" y="0" type="line"/>
      <point x="120" y="0" type="line"/>
      <point x="119" y="97" type="line"/>
    </contour>
    <contour>
      <point x="210" y="0" type="line"/>
      <point x="350" y="0" type="line"/>
      <point x="351" y="57" type="line"/>
      <point x="213" y="83" type="line"/>
    </contour>
    <contour>
      <point x="182" y="605" type="line"/>
      <point x="403" y="-7" type="line"/>
      <point x="559" y="16" type="line"/>
      <point x="563" y="152" type="line"/>
      <point x="386" y="650" type="line"/>
    </contour>
    <contour>
      <point x="464" y="36" type="line"/>
      <point x="559" y="16" type="line"/>
      <point x="791" y="613" type="line"/>
      <point x="699" y="650" type="line"/>
    </contour>
    <contour>
      <point x="699" y="650" type="line"/>
      <point x="720" y="502" type="line"/>
      <point x="699" y="225" type="line"/>
      <point x="699" y="0" type="line"/>
      <point x="928" y="0" type="line"/>
      <point x="918" y="650" type="line"/>
    </contour>
    <contour>
      <point x="913" y="650" type="line"/>
      <point x="914" y="553" type="line"/>
      <point x="953" y="573"/>
      <point x="986" y="594"/>
      <point x="1013" y="618" type="curve"/>
      <point x="1007" y="650" type="line"/>
    </contour>
    <contour>
      <point x="674" y="77"/>
      <point x="641" y="56"/>
      <point x="614" y="32" type="curve"/>
      <point x="620" y="0" type="line"/>
      <point x="714" y="0" type="line"/>
      <point x="713" y="97" type="line"/>
    </contour>
    <contour>
      <point x="874" y="0" type="line"/>
      <point x="1014" y="0" type="line"/>
      <point x="1015" y="57" type="line"/>
      <point x="877" y="83" type="line"/>
    </contour>
  </outline>
</glyph>
<glyph name="N" format="1">
  <advance width="786"/>
  <unicode hex="004E"/>
  <outline>
    <contour>
      <point x="210" y="0" type="line"/>
      <point x="350" y="0" type="line"/>
      <point x="351" y="57" type="line"/>
      <point x="213" y="83" type="line"/>
    </contour>
    <contour>
      <point x="80" y="77"/>
      <point x="47" y="56"/>
      <point x="20" y="32" type="curve"/>
      <point x="26" y="0" type="line"/>
      <point x="120" y="0" type="line"/>
      <point x="119" y="97" type="line"/>
    </contour>
    <contour>
      <point x="105" y="650" type="line"/>
      <point x="105" y="0" type="line"/>
      <point x="264" y="0" type="line"/>
      <point x="264" y="225" type="line"/>
      <point x="235" y="498" type="line"/>
      <point x="316" y="650" type="line"/>
    </contour>
    <contour>
      <point x="29" y="650" type="line"/>
      <point x="28" y="593" type="line"/>
      <point x="146" y="567" type="line"/>
      <point x="149" y="650" type="line"/>
    </contour>
    <contour>
      <point x="113" y="650" type="line"/>
      <point x="112" y="545" type="line"/>
      <point x="513" y="-15" type="line"/>
      <point x="659" y="10" type="line"/>
      <point x="693" y="106" type="line"/>
      <point x="316" y="650" type="line"/>
    </contour>
    <contour>
      <point x="456" y="650" type="line"/>
      <point x="455" y="593" type="line"/>
      <point x="593" y="567" type="line"/>
      <point x="596" y="650" type="line"/>
    </contour>
    <contour>
      <point x="562" y="650" type="line"/>
      <point x="562" y="425" type="line"/>
      <point x="601" y="40" type="line"/>
      <point x="513" y="-15" type="line"/>
      <point x="711" y="0" type="line"/>
      <point x="721" y="650" type="line"/>
    </contour>
    <contour>
      <point x="686" y="650" type="line"/>
      <point x="687" y="553" type="line"/>
      <point x="726" y="573"/>
      <point x="759" y="594"/>
      <point x="786" y="618" type="curve"/>
      <point x="780" y="650" type="line"/>
    </contour>
    <contour>
      <point x="388" y="650" type="move" name="top"/>
    </contour>
    <contour>
      <point x="388" y="0" type="move" name="bottom"/>
    </contour>
  </outline>
</glyph>
<glyph name="P" format="1">
  <advance width="722"/>
  <unicode hex="0050"/>
  <outline>
    <contour>
      <point x="181" y="650" type="line"/>
      <point x="328" y="536" type="line"/>
      <point x="427" y="542" type="line"/>
      <point x="450" y="521"/>
      <point x="463" y="468"/>
      <point x="463" y="427" type="curve" smooth="yes"/>
      <point x="463" y="374"/>
      <point x="442" y="313"/>
      <point x="396" y="313" type="curve" smooth="yes"/>
      <point x="372" y="313"/>
      <point x="359" y="317"/>
      <point x="314" y="327" type="curve"/>
      <point x="311" y="215" type="line"/>
      <point x="469" y="216" type="line" smooth="yes"/>
      <point x="621" y="217"/>
      <point x="697" y="330"/>
      <point x="697" y="434" type="curve" smooth="yes"/>
      <point x="697" y="541"/>
      <point x="618" y="658"/>
      <point x="430" y="658" type="curve"/>
    </contour>
    <contour>
      <point x="82" y="77"/>
      <point x="49" y="56"/>
      <point x="22" y="32" type="curve"/>
      <point x="28" y="0" type="line"/>
      <point x="122" y="0" type="line"/>
      <point x="121" y="97" type="line"/>
    </contour>
    <contour>
      <point x="322" y="0" type="line"/>
      <point x="462" y="0" type="line"/>
      <point x="463" y="57" type="line"/>
      <point x="325" y="83" type="line"/>
    </contour>
    <contour>
      <point x="97" y="650" type="line"/>
      <point x="97" y="0" type="line"/>
      <point x="336" y="0" type="line"/>
      <point x="336" y="650" type="line"/>
    </contour>
    <contour>
      <point x="21" y="650" type="line"/>
      <point x="20" y="593" type="line"/>
      <point x="158" y="567" type="line"/>
      <point x="161" y="650" type="line"/>
    </contour>
  </outline>
</glyph>
<glyph name="Q" format="1">
  <advance width="698"/>
  <unicode hex="0051"/>
  <outline>
    <contour>
      <point x="161" y="670"/>
      <point x="25" y="524"/>
      <point x="25" y="331" type="curve" smooth="yes"/>
      <point x="25" y="86"/>
      <point x="189" y="-20"/>
      <point x="353" y="-20" type="curve" smooth="yes"/>
      <point x="514" y="-20"/>
      <point x="673" y="79"/>
      <point x="673" y="331" type="curve" smooth="yes"/>
      <point x="673" y="533"/>
      <point x="520" y="670"/>
      <point x="352" y="670" type="curve" smooth="yes"/>
    </contour>
    <contour>
      <point x="304" y="547"/>
      <point x="314" y="549"/>
      <point x="324" y="549" type="curve" smooth="yes"/>
      <point x="392" y="549"/>
      <point x="415" y="459"/>
      <point x="415" y="273" type="curve" smooth="yes"/>
      <point x="415" y="237"/>
      <point x="414" y="133"/>
      <point x="394" y="97" type="curve"/>
      <point x="388" y="96"/>
      <point x="383" y="95"/>
      <point x="378" y="95" type="curve" smooth="yes"/>
      <point x="311" y="95"/>
      <point x="278" y="187"/>
      <point x="278" y="386" type="curve" smooth="yes"/>
      <point x="278" y="417"/>
      <point x="277" y="513"/>
      <point x="293" y="544" type="curve"/>
    </contour>
    <contour>
      <point x="318" y="-3" type="line"/>
      <point x="662" y="-162" type="line"/>
      <point x="721" y="-24" type="line"/>
      <point x="353" y="54" type="line"/>
    </contour>
  </outline>
</glyph>
<glyph name="R" format="1">
  <advance width="778"/>
  <unicode hex="0052"/>
  <outline>
    <contour>
      <point x="189" y="650" type="line"/>
      <point x="336" y="536" type="line"/>
      <point x="435" y="542" type="line"/>
      <point x="457" y="511"/>
      <point x="468" y="475"/>
      <point x="468" y="442" type="curve" smooth="yes"/>
      <point x="468" y="382"/>
      <point x="432" y="330"/>
      <point x="357" y="330" type="curve" smooth="yes"/>
      <point x="346" y="330"/>
      <point x="334" y="331"/>
      <point x="322" y="333" type="curve"/>
      <point x="319" y="225" type="line"/>
      <point x="457" y="226" type="line" smooth="yes"/>
      <point x="608" y="227"/>
      <point x="705" y="333"/>
      <point x="705" y="445" type="curve" smooth="yes"/>
      <point x="705" y="557"/>
      <point x="608" y="658"/>
      <point x="428" y="658" type="curve"/>
    </contour>
    <contour>
      <point x="80" y="77"/>
      <point x="47" y="56"/>
      <point x="20" y="32" type="curve"/>
      <point x="26" y="0" type="line"/>
      <point x="120" y="0" type="line"/>
      <point x="119" y="97" type="line"/>
    </contour>
    <contour>
      <point x="290" y="0" type="line"/>
      <point x="430" y="0" type="line"/>
      <point x="431" y="57" type="line"/>
      <point x="293" y="83" type="line"/>
    </contour>
    <contour>
      <point x="105" y="650" type="line"/>
      <point x="105" y="0" type="line"/>
      <point x="344" y="0" type="line"/>
      <point x="344" y="650" type="line"/>
    </contour>
    <contour>
      <point x="29" y="650" type="line"/>
      <point x="28" y="593" type="line"/>
      <point x="166" y="567" type="line"/>
      <point x="169" y="650" type="line"/>
    </contour>
    <contour>
      <point x="345" y="265" type="line"/>
      <point x="480" y="0" type="line"/>
      <point x="728" y="0" type="line"/>
      <point x="575" y="274" type="line"/>
    </contour>
    <contour>
      <point x="612" y="0" type="line"/>
      <point x="752" y="0" type="line"/>
      <point x="753" y="57" type="line"/>
      <point x="615" y="83" type="line"/>
    </contour>
    <contour>
      <point x="377" y="650" type="move" name="top"/>
    </contour>
    <contour>
      <point x="387" y="0" type="move" name="bottom"/>
    </contour>
  </outline>
</glyph>
<glyph name="S" format="1">
  <advance width="599"/>
  <unicode hex="0053"/>
  <outline>
    <contour>
      <point x="146" y="670"/>
      <point x="23" y="594"/>
      <point x="23" y="469" type="curve" smooth="yes"/>
      <point x="23" y="350"/>
      <point x="136" y="280"/>
      <point x="231" y="228" type="curve" smooth="yes"/>
      <point x="323" y="178"/>
      <point x="354" y="160"/>
      <point x="354" y="128" type="curve" smooth="yes"/>
      <point x="354" y="106"/>
      <point x="339" y="90"/>
      <point x="303" y="71" type="curve"/>
      <point x="237" y="81"/>
      <point x="151" y="116"/>
      <point x="89" y="173" type="curve"/>
      <point x="22" y="27" type="line"/>
      <point x="105" y="-8"/>
      <point x="216" y="-29"/>
      <point x="300" y="-29" type="curve" smooth="yes"/>
      <point x="459" y="-29"/>
      <point x="588" y="46"/>
      <point x="588" y="181" type="curve" smooth="yes"/>
      <point x="588" y="282"/>
      <point x="515" y="340"/>
      <point x="419" y="390" type="curve" smooth="yes"/>
      <point x="349" y="427"/>
      <point x="248" y="466"/>
      <point x="248" y="522" type="curve" smooth="yes"/>
      <point x="248" y="546"/>
      <point x="267" y="570"/>
      <point x="292" y="575" type="curve"/>
      <point x="378" y="565"/>
      <point x="448" y="521"/>
      <point x="510" y="454" type="curve"/>
      <point x="567" y="609" type="line"/>
      <point x="501" y="648"/>
      <point x="388" y="670"/>
      <point x="303" y="670" type="curve" smooth="yes"/>
    </contour>
    <contour>
      <point x="552" y="401" type="line"/>
      <point x="562" y="460"/>
      <point x="574" y="560"/>
      <point x="567" y="609" type="curve"/>
      <point x="326" y="623" type="line"/>
      <point x="442" y="401" type="line"/>
    </contour>
    <contour>
      <point x="22" y="186"/>
      <point x="17" y="76"/>
      <point x="22" y="27" type="curve"/>
      <point x="293" y="13" type="line"/>
      <point x="147" y="235" type="line"/>
      <point x="37" y="235" type="line"/>
    </contour>
    <contour>
      <point x="319" y="650" type="move" name="top"/>
    </contour>
    <contour>
      <point x="309" y="0" type="move" name="bottom"/>
    </contour>
  </outline>
</glyph>
<glyph name="T" format="1">
  <advance width="716"/>
  <unicode hex="0054"/>
  <outline>
    <contour>
      <point x="239" y="650" type="line"/>
      <point x="239" y="0" type="line"/>
      <point x="478" y="0" type="line"/>
      <point x="478" y="650" type="line"/>
    </contour>
    <contour>
      <point x="214" y="77"/>
      <point x="181" y="56"/>
      <point x="154" y="32" type="curve"/>
      <point x="160" y="0" type="line"/>
      <point x="254" y="0" type="line"/>
      <point x="253" y="97" type="line"/>
    </contour>
    <contour>
      <point x="424" y="0" type="line"/>
      <point x="564" y="0" type="line"/>
      <point x="565" y="57" type="line"/>
      <point x="427" y="83" type="line"/>
    </contour>
    <contour>
      <point x="344" y="650"/>
      <point x="378" y="650"/>
      <point x="26" y="656" type="curve"/>
      <point x="33" y="531" type="line"/>
      <point x="359" y="565" type="line"/>
      <point x="683" y="531" type="line"/>
      <point x="690" y="656" type="line"/>
    </contour>
    <contour>
      <point x="685" y="362" type="line"/>
      <point x="690" y="411"/>
      <point x="705" y="607"/>
      <point x="700" y="656" type="curve"/>
      <point x="528" y="650" type="line"/>
      <point x="565" y="362" type="line"/>
    </contour>
    <contour>
      <point x="188" y="650" type="line"/>
      <point x="16" y="656" type="line"/>
      <point x="11" y="607"/>
      <point x="26" y="411"/>
      <point x="31" y="362" type="curve"/>
      <point x="151" y="362" type="line"/>
    </contour>
    <contour>
      <point x="358" y="325" type="move" name="center"/>
    </contour>
    <contour>
      <point x="358" y="0" type="move" name="bottom"/>
    </contour>
    <contour>
      <point x="358" y="650" type="move" name="top"/>
    </contour>
  </outline>
</glyph>
<glyph name="U" format="1">
  <advance width="821"/>
  <unicode hex="0055"/>
  <outline>
    <contour>
      <point x="557" y="650" type="line"/>
      <point x="557" y="273" type="line"/>
      <point x="557" y="179"/>
      <point x="540" y="136"/>
      <point x="511" y="93" type="curve"/>
      <point x="496" y="88"/>
      <point x="481" y="86"/>
      <point x="470" y="86" type="curve" smooth="yes"/>
      <point x="409" y="86"/>
      <point x="336" y="146"/>
      <point x="336" y="273" type="curve"/>
      <point x="336" y="650" type="line"/>
      <point x="97" y="650" type="line"/>
      <point x="97" y="303" type="line"/>
      <point x="97" y="66"/>
      <point x="279" y="-20"/>
      <point x="412" y="-20" type="curve" smooth="yes"/>
      <point x="553" y="-20"/>
      <point x="716" y="29"/>
      <point x="716" y="283" type="curve"/>
      <point x="716" y="650" type="line"/>
    </contour>
    <contour>
      <point x="21" y="650" type="line"/>
      <point x="20" y="593" type="line"/>
      <point x="158" y="567" type="line"/>
      <point x="161" y="650" type="line"/>
    </contour>
    <contour>
      <point x="321" y="650" type="line"/>
      <point x="322" y="553" type="line"/>
      <point x="361" y="573"/>
      <point x="394" y="594"/>
      <point x="421" y="618" type="curve"/>
      <point x="415" y="650" type="line"/>
    </contour>
    <contour>
      <point x="481" y="650" type="line"/>
      <point x="480" y="593" type="line"/>
      <point x="618" y="567" type="line"/>
      <point x="621" y="650" type="line"/>
    </contour>
    <contour>
      <point x="701" y="650" type="line"/>
      <point x="702" y="553" type="line"/>
      <point x="741" y="573"/>
      <point x="774" y="594"/>
      <point x="801" y="618" type="curve"/>
      <point x="795" y="650" type="line"/>
    </contour>
    <contour>
      <point x="589" y="0" type="move" name="ogonek"/>
    </contour>
    <contour>
      <point x="407" y="650" type="move" name="top"/>
    </contour>
  </outline>
</glyph>
<glyph name="V" format="1">
  <advance width="762"/>
  <unicode hex="0056"/>
  <outline>
    <contour>
      <point x="57" y="650" type="line"/>
      <point x="314" y="-20" type="line"/>
      <point x="388" y="-11"/>
      <point x="452" y="-2"/>
      <point x="506" y="13" type="curve"/>
      <point x="455" y="164" type="line"/>
      <point x="417" y="165" type="line"/>
      <point x="412" y="304" type="line"/>
      <point x="298" y="650" type="line"/>
    </contour>
    <contour>
      <point x="6" y="650" type="line"/>
      <point x="5" y="593" type="line"/>
      <point x="143" y="567" type="line"/>
      <point x="146" y="650" type="line"/>
    </contour>
    <contour>
      <point x="506" y="13" type="line"/>
      <point x="709" y="650" type="line"/>
      <point x="566" y="650" type="line"/>
      <point x="386" y="38" type="line"/>
    </contour>
    <contour>
      <point x="297" y="650" type="line"/>
      <point x="298" y="553" type="line"/>
      <point x="337" y="573"/>
      <point x="370" y="594"/>
      <point x="397" y="618" type="curve"/>
      <point x="391" y="650" type="line"/>
    </contour>
    <contour>
      <point x="457" y="650" type="line"/>
      <point x="456" y="593" type="line"/>
      <point x="594" y="567" type="line"/>
      <point x="597" y="650" type="line"/>
    </contour>
    <contour>
      <point x="657" y="650" type="line"/>
      <point x="658" y="553" type="line"/>
      <point x="697" y="573"/>
      <point x="730" y="594"/>
      <point x="757" y="618" type="curve"/>
      <point x="751" y="650" type="line"/>
    </contour>
  </outline>
</glyph>
<glyph name="W" format="1">
  <advance width="1102"/>
  <unicode hex="0057"/>
  <outline>
    <contour>
      <point x="6" y="650" type="line"/>
      <point x="5" y="593" type="line"/>
      <point x="143" y="567" type="line"/>
      <point x="146" y="650" type="line"/>
    </contour>
    <contour>
      <point x="297" y="650" type="line"/>
      <point x="298" y="553" type="line"/>
      <point x="337" y="573"/>
      <point x="370" y="594"/>
      <point x="397" y="618" type="curve"/>
      <point x="391" y="650" type="line"/>
    </contour>
    <contour>
      <point x="57" y="650" type="line"/>
      <point x="294" y="-20" type="line"/>
      <point x="368" y="-11"/>
      <point x="432" y="-2"/>
      <point x="486" y="13" type="curve"/>
      <point x="435" y="164" type="line"/>
      <point x="395" y="165" type="line"/>
      <point x="392" y="304" type="line"/>
      <point x="298" y="650" type="line"/>
    </contour>
    <contour>
      <point x="366" y="38" type="line"/>
      <point x="486" y="13" type="line"/>
      <point x="535" y="166" type="line"/>
      <point x="564" y="279" type="line"/>
      <point x="582" y="281" type="line"/>
      <point x="638" y="478" type="line"/>
      <point x="510" y="528" type="line"/>
    </contour>
    <contour>
      <point x="447" y="650" type="line"/>
      <point x="674" y="-20" type="line"/>
      <point x="748" y="-11"/>
      <point x="812" y="-2"/>
      <point x="866" y="13" type="curve"/>
      <point x="815" y="164" type="line"/>
      <point x="770" y="165" type="line"/>
      <point x="772" y="304" type="line"/>
      <point x="698" y="650" type="line"/>
    </contour>
    <contour>
      <point x="866" y="13" type="line"/>
      <point x="1049" y="650" type="line"/>
      <point x="906" y="650" type="line"/>
      <point x="746" y="38" type="line"/>
    </contour>
    <contour>
      <point x="797" y="650" type="line"/>
      <point x="796" y="593" type="line"/>
      <point x="934" y="567" type="line"/>
      <point x="937" y="650" type="line"/>
    </contour>
    <contour>
      <point x="997" y="650" type="line"/>
      <point x="998" y="553" type="line"/>
      <point x="1037" y="573"/>
      <point x="1070" y="594"/>
      <point x="1097" y="618" type="curve"/>
      <point x="1091" y="650" type="line"/>
    </contour>
    <contour>
      <point x="556" y="650" type="move" name="top"/>
    </contour>
  </outline>
</glyph>
<glyph name="X" format="1">
  <advance width="773"/>
  <unicode hex="0058"/>
  <outline>
    <contour>
      <point x="158" y="567" type="line"/>
      <point x="161" y="650" type="line"/>
      <point x="21" y="650" type="line"/>
      <point x="20" y="593" type="line"/>
    </contour>
    <contour>
      <point x="311" y="650" type="line"/>
      <point x="312" y="553" type="line"/>
      <point x="351" y="573"/>
      <point x="384" y="594"/>
      <point x="411" y="618" type="curve"/>
      <point x="405" y="650" type="line"/>
    </contour>
    <contour>
      <point x="431" y="650" type="line"/>
      <point x="430" y="593" type="line"/>
      <point x="568" y="567" type="line"/>
      <point x="571" y="650" type="line"/>
    </contour>
    <contour>
      <point x="641" y="650" type="line"/>
      <point x="642" y="553" type="line"/>
      <point x="681" y="573"/>
      <point x="714" y="594"/>
      <point x="741" y="618" type="curve"/>
      <point x="735" y="650" type="line"/>
    </contour>
    <contour>
      <point x="92" y="77"/>
      <point x="59" y="56"/>
      <point x="32" y="32" type="curve"/>
      <point x="38" y="0" type="line"/>
      <point x="132" y="0" type="line"/>
      <point x="131" y="97" type="line"/>
    </contour>
    <contour>
      <point x="212" y="0" type="line"/>
      <point x="352" y="0" type="line"/>
      <point x="353" y="57" type="line"/>
      <point x="215" y="83" type="line"/>
    </contour>
    <contour>
      <point x="422" y="77"/>
      <point x="389" y="56"/>
      <point x="362" y="32" type="curve"/>
      <point x="368" y="0" type="line"/>
      <point x="462" y="0" type="line"/>
      <point x="461" y="97" type="line"/>
    </contour>
    <contour>
      <point x="612" y="0" type="line"/>
      <point x="752" y="0" type="line"/>
      <point x="753" y="57" type="line"/>
      <point x="615" y="83" type="line"/>
    </contour>
    <contour>
      <point x="46" y="650" type="line"/>
      <point x="447" y="0" type="line"/>
      <point x="720" y="0" type="line"/>
      <point x="309" y="650" type="line"/>
    </contour>
    <contour>
      <point x="554" y="650" type="line"/>
      <point x="377" y="380" type="line"/>
      <point x="498" y="344" type="line"/>
      <point x="724" y="650" type="line"/>
    </contour>
    <contour>
      <point x="59" y="0" type="line"/>
      <point x="226" y="0" type="line"/>
      <point x="444" y="332" type="line"/>
      <point x="332" y="368" type="line"/>
    </contour>
  </outline>
</glyph>
<glyph name="Y" format="1">
  <advance width="732"/>
  <unicode hex="0059"/>
  <outline>
    <contour>
      <point x="53" y="650" type="line"/>
      <point x="262" y="226" type="line"/>
      <point x="451" y="322" type="line"/>
      <point x="428" y="368" type="line"/>
      <point x="400" y="367" type="line"/>
      <point x="383" y="468" type="line"/>
      <point x="270" y="650" type="line"/>
    </contour>
    <contour>
      <point x="6" y="650" type="line"/>
      <point x="5" y="593" type="line"/>
      <point x="143" y="567" type="line"/>
      <point x="146" y="650" type="line"/>
    </contour>
    <contour>
      <point x="260" y="650" type="line"/>
      <point x="261" y="553" type="line"/>
      <point x="300" y="573"/>
      <point x="333" y="594"/>
      <point x="360" y="618" type="curve"/>
      <point x="354" y="650" type="line"/>
    </contour>
    <contour>
      <point x="547" y="650" type="line"/>
      <point x="378" y="299" type="line"/>
      <point x="482" y="250" type="line"/>
      <point x="688" y="650" type="line"/>
    </contour>
    <contour>
      <point x="447" y="650" type="line"/>
      <point x="446" y="593" type="line"/>
      <point x="584" y="567" type="line"/>
      <point x="587" y="650" type="line"/>
    </contour>
    <contour>
      <point x="627" y="650" type="line"/>
      <point x="628" y="553" type="line"/>
      <point x="667" y="573"/>
      <point x="700" y="594"/>
      <point x="727" y="618" type="curve"/>
      <point x="721" y="650" type="line"/>
    </contour>
    <contour>
      <point x="260" y="0" type="line"/>
      <point x="489" y="0" type="line"/>
      <point x="489" y="338" type="line"/>
      <point x="260" y="338" type="line"/>
    </contour>
    <contour>
      <point x="235" y="77"/>
      <point x="202" y="56"/>
      <point x="175" y="32" type="curve"/>
      <point x="181" y="0" type="line"/>
      <point x="275" y="0" type="line"/>
      <point x="274" y="97" type="line"/>
    </contour>
    <contour>
      <point x="435" y="0" type="line"/>
      <point x="575" y="0" type="line"/>
      <point x="576" y="57" type="line"/>
      <point x="438" y="83" type="line"/>
    </contour>
    <contour>
      <point x="396" y="650" type="move" name="top"/>
    </contour>
  </outline>
</glyph>
<glyph name="Z" format="1">
  <advance width="660"/>
  <unicode hex="005A"/>
  <outline>
    <contour>
      <point x="81" y="511" type="line"/>
      <point x="532" y="547" type="line"/>
      <point x="537" y="650" type="line"/>
      <point x="39" y="650" type="line"/>
    </contour>
    <contour>
      <point x="487" y="607" type="line"/>
      <point x="378" y="595" type="line"/>
      <point x="4" y="37" type="line"/>
      <point x="95" y="-26" type="line"/>
      <point x="160" y="41" type="line"/>
      <point x="260" y="47" type="line"/>
      <point x="639" y="619" type="line"/>
      <point x="557" y="678" type="line"/>
    </contour>
    <contour>
      <point x="165" y="113" type="line"/>
      <point x="108" y="-1" type="line"/>
      <point x="606" y="-10" type="line"/>
      <point x="576" y="129" type="line"/>
    </contour>
    <contour>
      <point x="260" y="581" type="line"/>
      <point x="39" y="650" type="line"/>
      <point x="32" y="561"/>
      <point x="29" y="452"/>
      <point x="44" y="383" type="curve"/>
      <point x="184" y="383" type="line"/>
    </contour>
    <contour>
      <point x="371" y="12" type="line"/>
      <point x="605" y="-10" type="line"/>
      <point x="615" y="81"/>
      <point x="621" y="158"/>
      <point x="622" y="247" type="curve"/>
      <point x="483" y="258" type="line"/>
    </contour>
    <contour>
      <point x="353" y="650" type="move" name="top"/>
    </contour>
  </outline>
</glyph>
<glyph name="a" format="1">
  <advance width="592"/>
  <unicode hex="0061"/>
  <outline>
    <contour>
      <point x="36" y="196"/>
      <point x="10" y="151"/>
      <point x="10" y="108" type="curve" smooth="yes"/>
      <point x="10" y="34"/>
      <point x="86" y="-34"/>
      <point x="208" y="-12" type="curve"/>
      <point x="332" y="81" type="line"/>
      <point x="311" y="113" type="line"/>
      <point x="287" y="108"/>
      <point x="262" y="103"/>
      <point x="238" y="98" type="curve"/>
      <point x="230" y="109"/>
      <point x="226" y="120"/>
      <point x="226" y="131" type="curve" smooth="yes"/>
      <point x="226" y="153"/>
      <point x="244" y="170"/>
      <point x="280" y="171" type="curve" smooth="yes"/>
      <point x="316" y="172" type="line"/>
      <point x="315" y="241" type="line"/>
      <point x="93" y="226" type="line"/>
    </contour>
    <contour>
      <point x="34" y="398"/>
      <point x="34" y="343"/>
      <point x="44" y="289" type="curve"/>
      <point x="183" y="281" type="line"/>
      <point x="217" y="395" type="line"/>
      <point x="222" y="400"/>
      <point x="228" y="402"/>
      <point x="235" y="403" type="curve"/>
      <point x="252" y="394"/>
      <point x="279" y="371"/>
      <point x="279" y="308" type="curve" smooth="yes"/>
      <point x="279" y="71" type="line"/>
      <point x="303" y="71" type="line"/>
      <point x="334" y="10"/>
      <point x="380" y="-18"/>
      <point x="432" y="-18" type="curve"/>
      <point x="586" y="74" type="line"/>
      <point x="586" y="119" type="line"/>
      <point x="560" y="119"/>
      <point x="548" y="119"/>
      <point x="531" y="119" type="curve" smooth="yes"/>
      <point x="515" y="119"/>
      <point x="508" y="132"/>
      <point x="508" y="146" type="curve" smooth="yes"/>
      <point x="508" y="322" type="line" smooth="yes"/>
      <point x="508" y="374"/>
      <point x="506" y="407"/>
      <point x="496" y="423" type="curve"/>
      <point x="462" y="471"/>
      <point x="396" y="498"/>
      <point x="353" y="498" type="curve" smooth="yes"/>
      <point x="250" y="498"/>
      <point x="147" y="484"/>
      <point x="44" y="452" type="curve"/>
    </contour>
    <contour>
      <point x="520" y="10" type="move" name="ogonek"/>
    </contour>
    <contour>
      <point x="269" y="468" type="move" name="top"/>
    </contour>
  </outline>
</glyph>
<glyph name="b" format="1">
  <advance width="655"/>
  <unicode hex="0062"/>
  <outline>
    <contour>
      <point x="0" y="643" type="line"/>
      <point x="151" y="581" type="line"/>
      <point x="248" y="636" type="line"/>
      <point x="258" y="737" type="line"/>
      <point x="162" y="732"/>
      <point x="76" y="718"/>
      <point x="0" y="693" type="curve"/>
    </contour>
    <contour>
      <point x="258" y="737" type="line"/>
      <point x="92" y="674" type="line"/>
      <point x="92" y="8" type="line"/>
      <point x="322" y="38" type="line"/>
      <point x="322" y="679" type="line"/>
    </contour>
    <contour>
      <point x="227" y="304" type="line"/>
      <point x="266" y="331"/>
      <point x="297" y="343"/>
      <point x="321" y="343" type="curve" smooth="yes"/>
      <point x="374" y="343"/>
      <point x="394" y="286"/>
      <point x="394" y="224" type="curve" smooth="yes"/>
      <point x="394" y="170"/>
      <point x="379" y="111"/>
      <point x="359" y="82" type="curve"/>
      <point x="310" y="76"/>
      <point x="261" y="99"/>
      <point x="212" y="153" type="curve"/>
      <point x="92" y="8" type="line"/>
      <point x="151" y="-2"/>
      <point x="285" y="-12"/>
      <point x="350" y="-14" type="curve" smooth="yes"/>
      <point x="549" y="-21"/>
      <point x="640" y="126"/>
      <point x="640" y="263" type="curve" smooth="yes"/>
      <point x="640" y="390"/>
      <point x="562" y="508"/>
      <point x="420" y="487" type="curve"/>
      <point x="236" y="344" type="line"/>
    </contour>
  </outline>
</glyph>
<glyph name="c" format="1">
  <advance width="515"/>
  <unicode hex="0063"/>
  <outline>
    <contour>
      <point x="469" y="140" type="line"/>
      <point x="445" y="132"/>
      <point x="419" y="126"/>
      <point x="392" y="126" type="curve" smooth="yes"/>
      <point x="277" y="126"/>
      <point x="220" y="186"/>
      <point x="220" y="267" type="curve" smooth="yes"/>
      <point x="220" y="307"/>
      <point x="234" y="362"/>
      <point x="263" y="398" type="curve"/>
      <point x="303" y="360"/>
      <point x="318" y="318"/>
      <point x="335" y="255" type="curve"/>
      <point x="508" y="336" type="line"/>
      <point x="464" y="461"/>
      <point x="380" y="498"/>
      <point x="286" y="498" type="curve" smooth="yes"/>
      <point x="140" y="498"/>
      <point x="15" y="404"/>
      <point x="15" y="237" type="curve" smooth="yes"/>
      <point x="15" y="47"/>
      <point x="179" y="-36"/>
      <point x="333" y="-15" type="curve"/>
      <point x="492" y="79" type="line"/>
    </contour>
    <contour>
      <point x="275" y="468" type="move" name="top"/>
    </contour>
    <contour>
      <point x="255" y="0" type="move" name="bottom"/>
    </contour>
  </outline>
</glyph>
<glyph name="d" format="1">
  <advance width="642"/>
  <unicode hex="0064"/>
  <outline>
    <contour>
      <point x="387" y="581" type="line"/>
      <point x="484" y="636" type="line"/>
      <point x="494" y="737" type="line"/>
      <point x="398" y="732"/>
      <point x="312" y="718"/>
      <point x="236" y="693" type="curve"/>
      <point x="236" y="643" type="line"/>
    </contour>
    <contour>
      <point x="636" y="119" type="line"/>
      <point x="610" y="119"/>
      <point x="598" y="119"/>
      <point x="581" y="119" type="curve" smooth="yes"/>
      <point x="567" y="119"/>
      <point x="558" y="132"/>
      <point x="558" y="146" type="curve"/>
      <point x="558" y="679" type="line"/>
      <point x="494" y="737" type="line"/>
      <point x="329" y="674" type="line"/>
      <point x="329" y="71" type="line"/>
      <point x="353" y="71" type="line"/>
      <point x="384" y="10"/>
      <point x="430" y="-18"/>
      <point x="482" y="-18" type="curve"/>
      <point x="636" y="74" type="line"/>
    </contour>
    <contour>
      <point x="427" y="167" type="line"/>
      <point x="389" y="141"/>
      <point x="359" y="130"/>
      <point x="336" y="130" type="curve" smooth="yes"/>
      <point x="281" y="130"/>
      <point x="260" y="189"/>
      <point x="260" y="255" type="curve" smooth="yes"/>
      <point x="260" y="313"/>
      <point x="276" y="375"/>
      <point x="299" y="406" type="curve"/>
      <point x="357" y="397"/>
      <point x="404" y="367"/>
      <point x="442" y="318" type="curve"/>
      <point x="459" y="456" type="line"/>
      <point x="393" y="482"/>
      <point x="338" y="491"/>
      <point x="287" y="491" type="curve" smooth="yes"/>
      <point x="88" y="491"/>
      <point x="15" y="356"/>
      <point x="15" y="228" type="curve" smooth="yes"/>
      <point x="15" y="98"/>
      <point x="91" y="-24"/>
      <point x="234" y="-17" type="curve"/>
      <point x="418" y="127" type="line"/>
    </contour>
  </outline>
</glyph>
<glyph name="e" format="1">
  <advance width="542"/>
  <unicode hex="0065"/>
  <outline>
    <contour>
      <point x="471" y="138" type="line"/>
      <point x="437" y="127"/>
      <point x="403" y="119"/>
      <point x="372" y="119" type="curve" smooth="yes"/>
      <point x="271" y="119"/>
      <point x="235" y="206"/>
      <point x="235" y="291" type="curve" smooth="yes"/>
      <point x="235" y="328"/>
      <point x="244" y="366"/>
      <point x="262" y="395" type="curve"/>
      <point x="314" y="376"/>
      <point x="310" y="321"/>
      <point x="303" y="269" type="curve"/>
      <point x="517" y="279" type="line"/>
      <point x="517" y="457"/>
      <point x="355" y="498"/>
      <point x="281" y="498" type="curve" smooth="yes"/>
      <point x="133" y="498"/>
      <point x="15" y="399"/>
      <point x="15" y="237" type="curve" smooth="yes"/>
      <point x="15" y="47"/>
      <point x="187" y="-39"/>
      <point x="333" y="-15" type="curve"/>
      <point x="496" y="79" type="line"/>
    </contour>
    <contour>
      <point x="136" y="210" type="line"/>
      <point x="457" y="210" type="line"/>
      <point x="517" y="279" type="line"/>
      <point x="384" y="315" type="line"/>
      <point x="116" y="295" type="line"/>
    </contour>
    <contour>
      <point x="491" y="10" type="move" name="ogonek"/>
    </contour>
    <contour>
      <point x="274" y="0" type="move" name="bottom"/>
    </contour>
    <contour>
      <point x="274" y="468" type="move" name="top"/>
    </contour>
  </outline>
</glyph>
<glyph name="f" format="1">
  <advance width="425"/>
  <unicode hex="0066"/>
  <outline>
    <contour>
      <point x="475" y="702" type="line"/>
      <point x="417" y="733"/>
      <point x="361" y="751"/>
      <point x="312" y="751" type="curve" smooth="yes"/>
      <point x="183" y="751"/>
      <point x="82" y="644"/>
      <point x="82" y="517" type="curve" smooth="yes"/>
      <point x="82" y="0" type="line"/>
      <point x="312" y="0" type="line"/>
      <point x="312" y="438" type="line"/>
      <point x="312" y="469" type="line"/>
      <point x="232" y="637" type="line"/>
      <point x="294" y="605"/>
      <point x="340" y="561"/>
      <point x="372" y="503" type="curve"/>
    </contour>
    <contour>
      <point x="254" y="340" type="line"/>
      <point x="248" y="422" type="line"/>
      <point x="151" y="507" type="line"/>
      <point x="101" y="470"/>
      <point x="50" y="434"/>
      <point x="0" y="397" type="curve"/>
      <point x="0" y="340" type="line"/>
    </contour>
    <contour>
      <point x="140" y="0" type="line"/>
      <point x="147" y="93" type="line"/>
      <point x="100" y="84"/>
      <point x="53" y="65"/>
      <point x="6" y="36" type="curve"/>
      <point x="6" y="0" type="line"/>
    </contour>
    <contour>
      <point x="393" y="0" type="line"/>
      <point x="393" y="49" type="line"/>
      <point x="347" y="85"/>
      <point x="300" y="111"/>
      <point x="254" y="127" type="curve"/>
      <point x="213" y="0" type="line"/>
    </contour>
    <contour>
      <point x="252" y="339" type="line"/>
      <point x="362" y="338" type="line"/>
      <point x="415" y="412" type="line"/>
      <point x="415" y="475" type="line"/>
      <point x="252" y="475" type="line"/>
    </contour>
  </outline>
</glyph>
<glyph name="g" format="1">
  <advance width="609"/>
  <unicode hex="0067"/>
  <outline>
    <contour>
      <point x="405" y="553"/>
      <point x="394" y="431"/>
      <point x="426" y="344" type="curve"/>
      <point x="447" y="370" type="line"/>
      <point x="488" y="408"/>
      <point x="541" y="420"/>
      <point x="604" y="407" type="curve"/>
      <point x="571" y="553" type="line"/>
    </contour>
    <contour>
      <point x="450" y="156"/>
      <point x="531" y="249"/>
      <point x="531" y="333" type="curve" smooth="yes"/>
      <point x="531" y="423"/>
      <point x="440" y="498"/>
      <point x="279" y="498" type="curve" smooth="yes"/>
      <point x="102" y="498"/>
      <point x="21" y="407"/>
      <point x="21" y="326" type="curve" smooth="yes"/>
      <point x="21" y="254"/>
      <point x="85" y="156"/>
      <point x="270" y="156" type="curve" smooth="yes"/>
    </contour>
    <contour>
      <point x="331" y="419"/>
      <point x="319" y="251"/>
      <point x="290" y="241" type="curve"/>
      <point x="221" y="232"/>
      <point x="237" y="400"/>
      <point x="260" y="408" type="curve"/>
    </contour>
    <contour>
      <point x="160" y="32" type="line"/>
      <point x="2" y="-105" type="line"/>
      <point x="8" y="-202"/>
      <point x="107" y="-255"/>
      <point x="223" y="-257" type="curve" smooth="yes"/>
      <point x="467" y="-261"/>
      <point x="631" y="-38"/>
      <point x="554" y="97" type="curve"/>
      <point x="451" y="124"/>
      <point x="339" y="134"/>
      <point x="216" y="135" type="curve"/>
      <point x="227" y="152"/>
      <point x="254" y="176"/>
      <point x="279" y="189" type="curve"/>
      <point x="207" y="197" type="line"/>
      <point x="137" y="164"/>
      <point x="91" y="132"/>
      <point x="36" y="79" type="curve"/>
      <point x="60" y="-11" type="line"/>
      <point x="190" y="-23"/>
      <point x="284" y="-37"/>
      <point x="411" y="-66" type="curve"/>
      <point x="386" y="-91"/>
      <point x="324" y="-108"/>
      <point x="272" y="-108" type="curve" smooth="yes"/>
      <point x="218" y="-108"/>
      <point x="171" y="-90"/>
      <point x="171" y="-48" type="curve" smooth="yes"/>
      <point x="171" y="-22"/>
      <point x="190" y="3"/>
      <point x="259" y="42" type="curve"/>
    </contour>
    <contour>
      <point x="263" y="468" type="move" name="top"/>
    </contour>
  </outline>
</glyph>
<glyph name="h" format="1">
  <advance width="673"/>
  <unicode hex="0068"/>
  <outline>
    <contour>
      <point x="134" y="605" type="line"/>
      <point x="231" y="636" type="line"/>
      <point x="241" y="737" type="line"/>
      <point x="151" y="733"/>
      <point x="71" y="720"/>
      <point x="1" y="696" type="curve"/>
      <point x="1" y="646" type="line"/>
    </contour>
    <contour>
      <point x="76" y="0" type="line"/>
      <point x="305" y="0" type="line"/>
      <point x="305" y="679" type="line"/>
      <point x="241" y="737" type="line"/>
      <point x="76" y="674" type="line"/>
    </contour>
    <contour>
      <point x="134" y="0" type="line"/>
      <point x="141" y="93" type="line"/>
      <point x="94" y="84"/>
      <point x="47" y="65"/>
      <point x="0" y="36" type="curve"/>
      <point x="0" y="0" type="line"/>
    </contour>
    <contour>
      <point x="357" y="0" type="line"/>
      <point x="357" y="49" type="line"/>
      <point x="311" y="85"/>
      <point x="264" y="111"/>
      <point x="218" y="127" type="curve"/>
      <point x="177" y="0" type="line"/>
    </contour>
    <contour>
      <point x="454" y="0" type="line"/>
      <point x="461" y="93" type="line"/>
      <point x="414" y="84"/>
      <point x="367" y="65"/>
      <point x="320" y="36" type="curve"/>
      <point x="320" y="0" type="line"/>
    </contour>
    <contour>
      <point x="663" y="0" type="line"/>
      <point x="663" y="49" type="line"/>
      <point x="617" y="85"/>
      <point x="570" y="111"/>
      <point x="524" y="127" type="curve"/>
      <point x="483" y="0" type="line"/>
    </contour>
    <contour>
      <point x="372" y="0" type="line"/>
      <point x="601" y="0" type="line"/>
      <point x="601" y="282" type="line" smooth="yes"/>
      <point x="602" y="376"/>
      <point x="600" y="400"/>
      <point x="589" y="417" type="curve" smooth="yes"/>
      <point x="542" y="490"/>
      <point x="459" y="499"/>
      <point x="420" y="491" type="curve"/>
      <point x="323" y="454"/>
      <point x="235" y="388"/>
      <point x="158" y="291" type="curve"/>
      <point x="155" y="276" type="line"/>
      <point x="203" y="311"/>
      <point x="252" y="346"/>
      <point x="300" y="350" type="curve" smooth="yes"/>
      <point x="350" y="354"/>
      <point x="372" y="316"/>
      <point x="372" y="267" type="curve" smooth="yes"/>
    </contour>
    <contour>
      <point x="341" y="234" type="move" name="center"/>
    </contour>
    <contour>
      <point x="165" y="701" type="move" name="top"/>
    </contour>
  </outline>
</glyph>
<glyph name="i" format="1">
  <advance width="387"/>
  <unicode hex="0069"/>
  <outline>
    <contour>
      <point x="250" y="570"/>
      <point x="289" y="614"/>
      <point x="317" y="668" type="curve"/>
      <point x="281" y="721"/>
      <point x="234" y="765"/>
      <point x="178" y="798" type="curve"/>
      <point x="127" y="758"/>
      <point x="86" y="708"/>
      <point x="55" y="648" type="curve"/>
      <point x="94" y="601"/>
      <point x="143" y="563"/>
      <point x="202" y="536" type="curve"/>
    </contour>
    <contour>
      <point x="134" y="366" type="line"/>
      <point x="231" y="397" type="line"/>
      <point x="241" y="498" type="line"/>
      <point x="151" y="494"/>
      <point x="71" y="481"/>
      <point x="1" y="457" type="curve"/>
      <point x="1" y="407" type="line"/>
    </contour>
    <contour>
      <point x="76" y="0" type="line"/>
      <point x="305" y="0" type="line"/>
      <point x="305" y="440" type="line"/>
      <point x="241" y="498" type="line"/>
      <point x="76" y="435" type="line"/>
    </contour>
    <contour>
      <point x="377" y="0" type="line"/>
      <point x="377" y="49" type="line"/>
      <point x="331" y="85"/>
      <point x="264" y="111"/>
      <point x="218" y="127" type="curve"/>
      <point x="177" y="0" type="line"/>
    </contour>
    <contour>
      <point x="134" y="0" type="line"/>
      <point x="141" y="93" type="line"/>
      <point x="94" y="84"/>
      <point x="47" y="65"/>
      <point x="0" y="36" type="curve"/>
      <point x="0" y="0" type="line"/>
    </contour>
  </outline>
</glyph>
<glyph name="j" format="1">
  <advance width="365"/>
  <unicode hex="006A"/>
  <outline>
    <contour>
      <point x="250" y="570"/>
      <point x="289" y="614"/>
      <point x="317" y="668" type="curve"/>
      <point x="281" y="721"/>
      <point x="234" y="765"/>
      <point x="178" y="798" type="curve"/>
      <point x="127" y="758"/>
      <point x="86" y="708"/>
      <point x="55" y="648" type="curve"/>
      <point x="94" y="601"/>
      <point x="143" y="563"/>
      <point x="202" y="536" type="curve"/>
    </contour>
    <contour>
      <point x="241" y="498" type="line"/>
      <point x="76" y="435" type="line"/>
      <point x="76" y="-83" type="line" smooth="yes"/>
      <point x="76" y="-143"/>
      <point x="24" y="-171"/>
      <point x="-17" y="-185" type="curve"/>
      <point x="1" y="-225" type="line"/>
      <point x="224" y="-219"/>
      <point x="305" y="-117"/>
      <point x="305" y="-33" type="curve" smooth="yes"/>
      <point x="305" y="440" type="line"/>
    </contour>
    <contour>
      <point x="134" y="366" type="line"/>
      <point x="231" y="397" type="line"/>
      <point x="241" y="498" type="line"/>
      <point x="151" y="494"/>
      <point x="71" y="481"/>
      <point x="1" y="457" type="curve"/>
      <point x="1" y="407" type="line"/>
    </contour>
  </outline>
</glyph>
<glyph name="k" format="1">
  <advance width="680"/>
  <unicode hex="006B"/>
  <outline>
    <contour>
      <point x="134" y="605" type="line"/>
      <point x="231" y="636" type="line"/>
      <point x="241" y="737" type="line"/>
      <point x="151" y="733"/>
      <point x="71" y="720"/>
      <point x="1" y="696" type="curve"/>
      <point x="1" y="646" type="line"/>
    </contour>
    <contour>
      <point x="76" y="0" type="line"/>
      <point x="305" y="0" type="line"/>
      <point x="305" y="679" type="line"/>
      <point x="241" y="737" type="line"/>
      <point x="76" y="674" type="line"/>
    </contour>
    <contour>
      <point x="134" y="0" type="line"/>
      <point x="141" y="93" type="line"/>
      <point x="94" y="84"/>
      <point x="47" y="65"/>
      <point x="0" y="36" type="curve"/>
      <point x="0" y="0" type="line"/>
    </contour>
    <contour>
      <point x="357" y="0" type="line"/>
      <point x="357" y="49" type="line"/>
      <point x="311" y="85"/>
      <point x="264" y="111"/>
      <point x="218" y="127" type="curve"/>
      <point x="177" y="0" type="line"/>
    </contour>
    <contour>
      <point x="332" y="407" type="line"/>
      <point x="465" y="366" type="line"/>
      <point x="562" y="397" type="line"/>
      <point x="572" y="498" type="line"/>
      <point x="482" y="494"/>
      <point x="402" y="481"/>
      <point x="332" y="457" type="curve"/>
    </contour>
    <contour>
      <point x="572" y="498" type="line"/>
      <point x="419" y="433" type="line"/>
      <point x="294" y="233" type="line"/>
      <point x="309" y="221" type="line"/>
      <point x="357" y="187" type="line"/>
      <point x="448" y="179" type="line"/>
      <point x="636" y="440" type="line"/>
    </contour>
    <contour>
      <point x="649" y="60"/>
      <point x="628" y="70"/>
      <point x="608" y="81" type="curve"/>
      <point x="478" y="279" type="line"/>
      <point x="276" y="250" type="line"/>
      <point x="372" y="60" type="line"/>
      <point x="382" y="40"/>
      <point x="392" y="20"/>
      <point x="402" y="0" type="curve"/>
      <point x="669" y="0" type="line"/>
      <point x="669" y="49" type="line"/>
    </contour>
    <contour>
      <point x="340" y="0" type="move" name="bottom"/>
    </contour>
  </outline>
</glyph>
<glyph name="l" format="1">
  <advance width="387"/>
  <unicode hex="006C"/>
  <outline>
    <contour>
      <point x="76" y="0" type="line"/>
      <point x="305" y="0" type="line"/>
      <point x="305" y="679" type="line"/>
      <point x="241" y="737" type="line"/>
      <point x="76" y="674" type="line"/>
    </contour>
    <contour>
      <point x="134" y="605" type="line"/>
      <point x="231" y="636" type="line"/>
      <point x="241" y="737" type="line"/>
      <point x="151" y="733"/>
      <point x="71" y="720"/>
      <point x="1" y="696" type="curve"/>
      <point x="1" y="646" type="line"/>
    </contour>
    <contour>
      <point x="377" y="0" type="line"/>
      <point x="377" y="49" type="line"/>
      <point x="331" y="85"/>
      <point x="264" y="111"/>
      <point x="218" y="127" type="curve"/>
      <point x="177" y="0" type="line"/>
    </contour>
    <contour>
      <point x="134" y="0" type="line"/>
      <point x="141" y="93" type="line"/>
      <point x="94" y="84"/>
      <point x="47" y="65"/>
      <point x="0" y="36" type="curve"/>
      <point x="0" y="0" type="line"/>
    </contour>
    <contour>
      <point x="184" y="735" type="move" name="top"/>
    </contour>
    <contour>
      <point x="204" y="0" type="move" name="bottom"/>
    </contour>
    <contour>
      <point x="378" y="468" type="move" name="topright"/>
    </contour>
  </outline>
</glyph>
<glyph name="m" format="1">
  <advance width="989"/>
  <unicode hex="006D"/>
  <outline>
    <contour>
      <point x="134" y="366" type="line"/>
      <point x="231" y="397" type="line"/>
      <point x="241" y="498" type="line"/>
      <point x="151" y="494"/>
      <point x="71" y="481"/>
      <point x="1" y="457" type="curve"/>
      <point x="1" y="407" type="line"/>
    </contour>
    <contour>
      <point x="76" y="0" type="line"/>
      <point x="305" y="0" type="line"/>
      <point x="305" y="440" type="line"/>
      <point x="241" y="498" type="line"/>
      <point x="76" y="435" type="line"/>
    </contour>
    <contour>
      <point x="372" y="0" type="line"/>
      <point x="601" y="0" type="line"/>
      <point x="601" y="282" type="line" smooth="yes"/>
      <point x="602" y="376"/>
      <point x="600" y="400"/>
      <point x="589" y="417" type="curve" smooth="yes"/>
      <point x="542" y="490"/>
      <point x="459" y="499"/>
      <point x="420" y="491" type="curve"/>
      <point x="323" y="454"/>
      <point x="235" y="388"/>
      <point x="158" y="291" type="curve"/>
      <point x="155" y="276" type="line"/>
      <point x="203" y="311"/>
      <point x="252" y="346"/>
      <point x="300" y="350" type="curve" smooth="yes"/>
      <point x="350" y="354"/>
      <point x="372" y="316"/>
      <point x="372" y="267" type="curve" smooth="yes"/>
    </contour>
    <contour>
      <point x="669" y="0" type="line"/>
      <point x="898" y="0" type="line"/>
      <point x="898" y="282" type="line" smooth="yes"/>
      <point x="899" y="376"/>
      <point x="897" y="400"/>
      <point x="886" y="417" type="curve" smooth="yes"/>
      <point x="839" y="490"/>
      <point x="756" y="499"/>
      <point x="717" y="491" type="curve"/>
      <point x="620" y="454"/>
      <point x="532" y="388"/>
      <point x="455" y="291" type="curve"/>
      <point x="452" y="276" type="line"/>
      <point x="500" y="311"/>
      <point x="549" y="346"/>
      <point x="597" y="350" type="curve" smooth="yes"/>
      <point x="647" y="354"/>
      <point x="669" y="316"/>
      <point x="669" y="267" type="curve" smooth="yes"/>
    </contour>
    <contour>
      <point x="134" y="0" type="line"/>
      <point x="141" y="93" type="line"/>
      <point x="94" y="84"/>
      <point x="47" y="65"/>
      <point x="0" y="36" type="curve"/>
      <point x="0" y="0" type="line"/>
    </contour>
    <contour>
      <point x="357" y="0" type="line"/>
      <point x="357" y="49" type="line"/>
      <point x="311" y="85"/>
      <point x="264" y="111"/>
      <point x="218" y="127" type="curve"/>
      <point x="177" y="0" type="line"/>
    </contour>
    <contour>
      <point x="454" y="0" type="line"/>
      <point x="461" y="93" type="line"/>
      <point x="414" y="84"/>
      <point x="367" y="65"/>
      <point x="320" y="36" type="curve"/>
      <point x="320" y="0" type="line"/>
    </contour>
    <contour>
      <point x="653" y="0" type="line"/>
      <point x="653" y="49" type="line"/>
      <point x="607" y="85"/>
      <point x="560" y="111"/>
      <point x="514" y="127" type="curve"/>
      <point x="473" y="0" type="line"/>
    </contour>
    <contour>
      <point x="750" y="0" type="line"/>
      <point x="757" y="93" type="line"/>
      <point x="710" y="84"/>
      <point x="663" y="65"/>
      <point x="616" y="36" type="curve"/>
      <point x="616" y="0" type="line"/>
    </contour>
    <contour>
      <point x="979" y="0" type="line"/>
      <point x="979" y="49" type="line"/>
      <point x="933" y="85"/>
      <point x="866" y="111"/>
      <point x="820" y="127" type="curve"/>
      <point x="779" y="0" type="line"/>
    </contour>
  </outline>
</glyph>
<glyph name="n" format="1">
  <advance width="683"/>
  <unicode hex="006E"/>
  <outline>
    <contour>
      <point x="134" y="366" type="line"/>
      <point x="231" y="397" type="line"/>
      <point x="241" y="498" type="line"/>
      <point x="151" y="494"/>
      <point x="71" y="481"/>
      <point x="1" y="457" type="curve"/>
      <point x="1" y="407" type="line"/>
    </contour>
    <contour>
      <point x="76" y="0" type="line"/>
      <point x="305" y="0" type="line"/>
      <point x="305" y="440" type="line"/>
      <point x="241" y="498" type="line"/>
      <point x="76" y="435" type="line"/>
    </contour>
    <contour>
      <point x="372" y="0" type="line"/>
      <point x="601" y="0" type="line"/>
      <point x="601" y="282" type="line" smooth="yes"/>
      <point x="601" y="385"/>
      <point x="599" y="397"/>
      <point x="589" y="417" type="curve" smooth="yes"/>
      <point x="555" y="482"/>
      <point x="457" y="501"/>
      <point x="420" y="491" type="curve"/>
      <point x="323" y="454"/>
      <point x="235" y="388"/>
      <point x="158" y="291" type="curve"/>
      <point x="155" y="276" type="line"/>
      <point x="203" y="311"/>
      <point x="254" y="347"/>
      <point x="300" y="350" type="curve" smooth="yes"/>
      <point x="348" y="353"/>
      <point x="372" y="320"/>
      <point x="372" y="267" type="curve" smooth="yes"/>
    </contour>
    <contour>
      <point x="134" y="0" type="line"/>
      <point x="141" y="93" type="line"/>
      <point x="94" y="84"/>
      <point x="47" y="65"/>
      <point x="0" y="36" type="curve"/>
      <point x="0" y="0" type="line"/>
    </contour>
    <contour>
      <point x="357" y="0" type="line"/>
      <point x="357" y="49" type="line"/>
      <point x="311" y="85"/>
      <point x="264" y="111"/>
      <point x="218" y="127" type="curve"/>
      <point x="177" y="0" type="line"/>
    </contour>
    <contour>
      <point x="454" y="0" type="line"/>
      <point x="461" y="93" type="line"/>
      <point x="414" y="84"/>
      <point x="367" y="65"/>
      <point x="320" y="36" type="curve"/>
      <point x="320" y="0" type="line"/>
    </contour>
    <contour>
      <point x="673" y="0" type="line"/>
      <point x="673" y="49" type="line"/>
      <point x="627" y="85"/>
      <point x="560" y="111"/>
      <point x="514" y="127" type="curve"/>
      <point x="473" y="0" type="line"/>
    </contour>
    <contour>
      <point x="341" y="468" type="move" name="top"/>
    </contour>
    <contour>
      <point x="341" y="0" type="move" name="bottom"/>
    </contour>
  </outline>
</glyph>
<glyph name="o" format="1">
  <advance width="566"/>
  <unicode hex="006F"/>
  <outline>
    <contour>
      <point x="15" y="77"/>
      <point x="151" y="-20"/>
      <point x="285" y="-20" type="curve" smooth="yes"/>
      <point x="416" y="-20"/>
      <point x="554" y="77"/>
      <point x="551" y="236" type="curve" smooth="yes"/>
      <point x="548" y="408"/>
      <point x="418" y="498"/>
      <point x="285" y="498" type="curve" smooth="yes"/>
      <point x="165" y="498"/>
      <point x="15" y="408"/>
      <point x="15" y="236" type="curve" smooth="yes"/>
    </contour>
    <contour>
      <point x="258" y="81"/>
      <point x="244" y="157"/>
      <point x="244" y="233" type="curve" smooth="yes"/>
      <point x="244" y="290"/>
      <point x="252" y="347"/>
      <point x="262" y="365" type="curve"/>
      <point x="307" y="387"/>
      <point x="322" y="304"/>
      <point x="322" y="225" type="curve" smooth="yes"/>
      <point x="322" y="167"/>
      <point x="314" y="112"/>
      <point x="303" y="99" type="curve"/>
    </contour>
    <contour>
      <point x="283" y="468" type="move" name="top"/>
    </contour>
  </outline>
</glyph>
<glyph name="p" format="1">
  <advance width="636"/>
  <unicode hex="0070"/>
  <outline>
    <contour>
      <point x="74" y="-200" type="line"/>
      <point x="303" y="-200" type="line"/>
      <point x="303" y="440" type="line"/>
      <point x="239" y="498" type="line"/>
      <point x="74" y="435" type="line" smooth="yes"/>
    </contour>
    <contour>
      <point x="142" y="-200" type="line"/>
      <point x="149" y="-107" type="line"/>
      <point x="102" y="-126"/>
      <point x="55" y="-145"/>
      <point x="8" y="-164" type="curve"/>
      <point x="8" y="-200" type="line"/>
    </contour>
    <contour>
      <point x="405" y="-200" type="line"/>
      <point x="405" y="-151" type="line"/>
      <point x="359" y="-125"/>
      <point x="312" y="-99"/>
      <point x="266" y="-73" type="curve"/>
      <point x="225" y="-200" type="line"/>
    </contour>
    <contour>
      <point x="208" y="306" type="line"/>
      <point x="247" y="333"/>
      <point x="278" y="345"/>
      <point x="302" y="345" type="curve" smooth="yes"/>
      <point x="355" y="345"/>
      <point x="375" y="288"/>
      <point x="375" y="226" type="curve" smooth="yes"/>
      <point x="375" y="172"/>
      <point x="360" y="113"/>
      <point x="340" y="84" type="curve"/>
      <point x="291" y="78"/>
      <point x="242" y="101"/>
      <point x="193" y="155" type="curve"/>
      <point x="73" y="10" type="line"/>
      <point x="132" y="0"/>
      <point x="266" y="-10"/>
      <point x="331" y="-12" type="curve" smooth="yes"/>
      <point x="530" y="-19"/>
      <point x="621" y="128"/>
      <point x="621" y="265" type="curve" smooth="yes"/>
      <point x="621" y="392"/>
      <point x="543" y="510"/>
      <point x="401" y="489" type="curve"/>
      <point x="217" y="346" type="line"/>
    </contour>
    <contour>
      <point x="133" y="366" type="line"/>
      <point x="230" y="397" type="line"/>
      <point x="240" y="498" type="line"/>
      <point x="150" y="494"/>
      <point x="70" y="481"/>
      <point x="0" y="457" type="curve"/>
      <point x="0" y="407" type="line"/>
    </contour>
  </outline>
</glyph>
<glyph name="q" format="1">
  <advance width="639"/>
  <unicode hex="0071"/>
  <outline>
    <contour>
      <point x="428" y="167" type="line"/>
      <point x="390" y="141"/>
      <point x="360" y="130"/>
      <point x="337" y="130" type="curve" smooth="yes"/>
      <point x="282" y="130"/>
      <point x="261" y="189"/>
      <point x="261" y="255" type="curve" smooth="yes"/>
      <point x="261" y="313"/>
      <point x="277" y="375"/>
      <point x="300" y="406" type="curve"/>
      <point x="358" y="398"/>
      <point x="405" y="368"/>
      <point x="443" y="318" type="curve"/>
      <point x="559" y="465" type="line"/>
      <point x="503" y="471"/>
      <point x="343" y="486"/>
      <point x="305" y="489" type="curve" smooth="yes"/>
      <point x="107" y="503"/>
      <point x="15" y="361"/>
      <point x="15" y="223" type="curve" smooth="yes"/>
      <point x="15" y="98"/>
      <point x="92" y="-24"/>
      <point x="235" y="-17" type="curve"/>
      <point x="419" y="127" type="line"/>
    </contour>
    <contour>
      <point x="629" y="426" type="line"/>
      <point x="612" y="474" type="line"/>
      <point x="366" y="440" type="line"/>
      <point x="330" y="435" type="line"/>
      <point x="330" y="-200" type="line"/>
      <point x="559" y="-200" type="line"/>
      <point x="559" y="360" type="line"/>
    </contour>
    <contour>
      <point x="358" y="-200" type="line"/>
      <point x="365" y="-107" type="line"/>
      <point x="318" y="-116"/>
      <point x="271" y="-135"/>
      <point x="224" y="-164" type="curve"/>
      <point x="224" y="-200" type="line"/>
    </contour>
    <contour>
      <point x="611" y="-200" type="line"/>
      <point x="611" y="-151" type="line"/>
      <point x="565" y="-115"/>
      <point x="518" y="-89"/>
      <point x="472" y="-73" type="curve"/>
      <point x="431" y="-200" type="line"/>
    </contour>
  </outline>
</glyph>
<glyph name="r" format="1">
  <advance width="572"/>
  <unicode hex="0072"/>
  <outline>
    <contour>
      <point x="134" y="366" type="line"/>
      <point x="231" y="397" type="line"/>
      <point x="241" y="498" type="line"/>
      <point x="151" y="494"/>
      <point x="71" y="481"/>
      <point x="1" y="457" type="curve"/>
      <point x="1" y="407" type="line"/>
    </contour>
    <contour>
      <point x="76" y="0" type="line"/>
      <point x="305" y="0" type="line"/>
      <point x="305" y="440" type="line"/>
      <point x="241" y="498" type="line"/>
      <point x="76" y="435" type="line"/>
    </contour>
    <contour>
      <point x="134" y="0" type="line"/>
      <point x="141" y="93" type="line"/>
      <point x="94" y="84"/>
      <point x="47" y="65"/>
      <point x="0" y="36" type="curve"/>
      <point x="0" y="0" type="line"/>
    </contour>
    <contour>
      <point x="357" y="0" type="line"/>
      <point x="357" y="49" type="line"/>
      <point x="311" y="85"/>
      <point x="264" y="111"/>
      <point x="218" y="127" type="curve"/>
      <point x="177" y="0" type="line"/>
    </contour>
    <contour>
      <point x="189" y="280" type="line"/>
      <point x="226" y="236" type="line"/>
      <point x="251" y="273"/>
      <point x="315" y="339"/>
      <point x="350" y="356" type="curve"/>
      <point x="384" y="219" type="line"/>
      <point x="492" y="219" type="line"/>
      <point x="529" y="270"/>
      <point x="559" y="351"/>
      <point x="568" y="410" type="curve"/>
      <point x="541" y="475"/>
      <point x="442" y="499"/>
      <point x="396" y="491" type="curve"/>
    </contour>
    <contour>
      <point x="291" y="468" type="move" name="top"/>
    </contour>
    <contour>
      <point x="201" y="0" type="move" name="bottom"/>
    </contour>
  </outline>
</glyph>
<glyph name="s" format="1">
  <advance width="494"/>
  <unicode hex="0073"/>
  <outline>
    <contour>
      <point x="10" y="42" type="line"/>
      <point x="96" y="-7"/>
      <point x="179" y="-20"/>
      <point x="238" y="-20" type="curve" smooth="yes"/>
      <point x="373" y="-20"/>
      <point x="474" y="38"/>
      <point x="474" y="139" type="curve" smooth="yes"/>
      <point x="474" y="274"/>
      <point x="259" y="296"/>
      <point x="259" y="369" type="curve" smooth="yes"/>
      <point x="259" y="392"/>
      <point x="270" y="412"/>
      <point x="305" y="416" type="curve"/>
      <point x="343" y="416"/>
      <point x="380" y="416"/>
      <point x="418" y="416" type="curve"/>
      <point x="457" y="460" type="line"/>
      <point x="404" y="482"/>
      <point x="338" y="495"/>
      <point x="275" y="495" type="curve" smooth="yes"/>
      <point x="155" y="495"/>
      <point x="44" y="449"/>
      <point x="44" y="337" type="curve" smooth="yes"/>
      <point x="44" y="199"/>
      <point x="259" y="165"/>
      <point x="259" y="105" type="curve" smooth="yes"/>
      <point x="259" y="92"/>
      <point x="256" y="83"/>
      <point x="247" y="76" type="curve"/>
      <point x="192" y="106"/>
      <point x="142" y="144"/>
      <point x="99" y="192" type="curve"/>
    </contour>
    <contour>
      <point x="442" y="312" type="line"/>
      <point x="457" y="361"/>
      <point x="462" y="411"/>
      <point x="457" y="460" type="curve"/>
      <point x="256" y="474" type="line"/>
      <point x="332" y="312" type="line"/>
    </contour>
    <contour>
      <point x="257" y="468" type="move" name="top"/>
    </contour>
    <contour>
      <point x="257" y="0" type="move" name="bottom"/>
    </contour>
  </outline>
</glyph>
<glyph name="t" format="1">
  <advance width="470"/>
  <unicode hex="0074"/>
  <outline>
    <contour>
      <point x="423" y="139" type="line"/>
      <point x="401" y="139"/>
      <point x="373" y="139"/>
      <point x="350" y="139" type="curve" smooth="yes"/>
      <point x="325" y="139"/>
      <point x="310" y="149"/>
      <point x="310" y="166" type="curve" smooth="yes"/>
      <point x="310" y="442" type="line"/>
      <point x="260" y="619" type="line"/>
      <point x="152" y="604" type="line"/>
      <point x="81" y="449" type="line"/>
      <point x="81" y="76" type="line"/>
      <point x="90" y="15"/>
      <point x="153" y="-21"/>
      <point x="234" y="-17" type="curve"/>
      <point x="423" y="94" type="line"/>
    </contour>
    <contour>
      <point x="254" y="340" type="line"/>
      <point x="248" y="422" type="line"/>
      <point x="219" y="558" type="line"/>
      <point x="126" y="504"/>
      <point x="53" y="451"/>
      <point x="0" y="397" type="curve"/>
      <point x="0" y="340" type="line"/>
    </contour>
    <contour>
      <point x="273" y="339" type="line"/>
      <point x="383" y="338" type="line"/>
      <point x="436" y="412" type="line"/>
      <point x="436" y="475" type="line"/>
      <point x="273" y="475" type="line"/>
    </contour>
    <contour>
      <point x="241" y="234" type="move" name="center"/>
    </contour>
    <contour>
      <point x="211" y="0" type="move" name="bottom"/>
    </contour>
    <contour>
      <point x="450" y="468" type="move" name="topright"/>
    </contour>
  </outline>
</glyph>
<glyph name="u" format="1">
  <advance width="684"/>
  <unicode hex="0075"/>
  <outline>
    <contour>
      <point x="133" y="366" type="line"/>
      <point x="230" y="397" type="line"/>
      <point x="240" y="498" type="line"/>
      <point x="150" y="494"/>
      <point x="70" y="481"/>
      <point x="0" y="457" type="curve"/>
      <point x="0" y="407" type="line"/>
    </contour>
    <contour>
      <point x="521" y="203" type="line"/>
      <point x="473" y="168"/>
      <point x="424" y="133"/>
      <point x="376" y="129" type="curve" smooth="yes"/>
      <point x="326" y="125"/>
      <point x="304" y="163"/>
      <point x="304" y="212" type="curve" smooth="yes"/>
      <point x="304" y="440" type="line"/>
      <point x="240" y="498" type="line"/>
      <point x="75" y="440" type="line"/>
      <point x="75" y="197" type="line" smooth="yes"/>
      <point x="74" y="103"/>
      <point x="76" y="79"/>
      <point x="87" y="62" type="curve" smooth="yes"/>
      <point x="134" y="-11"/>
      <point x="217" y="-25"/>
      <point x="256" y="-17" type="curve"/>
      <point x="353" y="20"/>
      <point x="441" y="91"/>
      <point x="518" y="188" type="curve"/>
    </contour>
    <contour>
      <point x="429" y="366" type="line"/>
      <point x="526" y="397" type="line"/>
      <point x="536" y="498" type="line"/>
      <point x="456" y="496"/>
      <point x="386" y="484"/>
      <point x="326" y="462" type="curve"/>
      <point x="326" y="398" type="line"/>
    </contour>
    <contour>
      <point x="652" y="119"/>
      <point x="640" y="119"/>
      <point x="623" y="119" type="curve" smooth="yes"/>
      <point x="607" y="119"/>
      <point x="600" y="132"/>
      <point x="600" y="146" type="curve"/>
      <point x="600" y="440" type="line"/>
      <point x="536" y="498" type="line"/>
      <point x="371" y="440" type="line"/>
      <point x="371" y="76" type="line"/>
      <point x="395" y="76" type="line"/>
      <point x="426" y="15"/>
      <point x="472" y="-17"/>
      <point x="524" y="-17" type="curve"/>
      <point x="678" y="74" type="line"/>
      <point x="678" y="119" type="line"/>
    </contour>
    <contour>
      <point x="611" y="10" type="move" name="ogonek"/>
    </contour>
    <contour>
      <point x="320" y="468" type="move" name="top"/>
    </contour>
  </outline>
</glyph>
<glyph name="v" format="1">
  <advance width="614"/>
  <unicode hex="0076"/>
  <outline>
    <contour>
      <point x="-20" y="418" type="line"/>
      <point x="199" y="257" type="line"/>
      <point x="261" y="475" type="line"/>
      <point x="-20" y="475" type="line"/>
    </contour>
    <contour>
      <point x="205" y="475" type="line"/>
      <point x="288" y="381" type="line"/>
      <point x="307" y="390"/>
      <point x="323" y="403"/>
      <point x="338" y="418" type="curve"/>
      <point x="338" y="475" type="line"/>
    </contour>
    <contour>
      <point x="224" y="-9"/>
      <point x="346" y="-12"/>
      <point x="379" y="3" type="curve"/>
      <point x="452" y="160"/>
      <point x="526" y="318"/>
      <point x="599" y="475" type="curve"/>
      <point x="362" y="475" type="line"/>
      <point x="356" y="385"/>
      <point x="350" y="296"/>
      <point x="344" y="206" type="curve"/>
      <point x="339" y="206" type="line"/>
      <point x="323" y="262" type="line"/>
      <point x="261" y="475" type="line"/>
      <point x="29" y="437" type="line"/>
      <point x="182" y="-4" type="line"/>
    </contour>
    <contour>
      <point x="454" y="305" type="line"/>
      <point x="439" y="475" type="line"/>
      <point x="300" y="475" type="line"/>
      <point x="300" y="418" type="line"/>
    </contour>
    <contour>
      <point x="396" y="475" type="line"/>
      <point x="549" y="381" type="line"/>
      <point x="568" y="390"/>
      <point x="584" y="403"/>
      <point x="599" y="418" type="curve"/>
      <point x="599" y="475" type="line"/>
    </contour>
  </outline>
</glyph>
<glyph name="w" format="1">
  <advance width="873"/>
  <unicode hex="0077"/>
  <outline>
    <contour>
      <point x="-20" y="418" type="line"/>
      <point x="199" y="257" type="line"/>
      <point x="261" y="475" type="line"/>
      <point x="-20" y="475" type="line"/>
    </contour>
    <contour>
      <point x="205" y="475" type="line"/>
      <point x="288" y="381" type="line"/>
      <point x="307" y="390"/>
      <point x="323" y="403"/>
      <point x="338" y="418" type="curve"/>
      <point x="338" y="475" type="line"/>
    </contour>
    <contour>
      <point x="707" y="160"/>
      <point x="781" y="318"/>
      <point x="854" y="475" type="curve"/>
      <point x="612" y="475" type="line"/>
      <point x="605" y="375"/>
      <point x="599" y="276"/>
      <point x="592" y="176" type="curve"/>
      <point x="582" y="176" type="line"/>
      <point x="563" y="262" type="line"/>
      <point x="516" y="475" type="line"/>
      <point x="308" y="475" type="line"/>
      <point x="437" y="-4" type="line"/>
      <point x="479" y="-9"/>
      <point x="601" y="-12"/>
      <point x="634" y="3" type="curve"/>
    </contour>
    <contour>
      <point x="709" y="305" type="line"/>
      <point x="694" y="475" type="line"/>
      <point x="555" y="475" type="line"/>
      <point x="555" y="418" type="line"/>
    </contour>
    <contour>
      <point x="655" y="475" type="line"/>
      <point x="808" y="381" type="line"/>
      <point x="827" y="390"/>
      <point x="843" y="403"/>
      <point x="858" y="418" type="curve"/>
      <point x="858" y="475" type="line"/>
    </contour>
    <contour>
      <point x="364" y="273" type="line"/>
      <point x="358" y="176" type="line"/>
      <point x="348" y="176" type="line"/>
      <point x="323" y="262" type="line"/>
      <point x="261" y="475" type="line"/>
      <point x="29" y="437" type="line"/>
      <point x="182" y="-4" type="line"/>
      <point x="224" y="-9"/>
      <point x="366" y="-12"/>
      <point x="399" y="3" type="curve"/>
      <point x="445" y="166" type="line"/>
      <point x="474" y="262" type="line"/>
    </contour>
    <contour>
      <point x="430" y="468" type="move" name="top"/>
    </contour>
  </outline>
</glyph>
<glyph name="x" format="1">
  <advance width="628"/>
  <unicode hex="0078"/>
  <outline>
    <contour>
      <point x="19" y="418" type="line"/>
      <point x="238" y="257" type="line"/>
      <point x="290" y="475" type="line"/>
      <point x="19" y="475" type="line"/>
    </contour>
    <contour>
      <point x="296" y="390"/>
      <point x="312" y="403"/>
      <point x="327" y="418" type="curve"/>
      <point x="327" y="475" type="line"/>
      <point x="194" y="475" type="line"/>
      <point x="277" y="381" type="line"/>
    </contour>
    <contour>
      <point x="417" y="341" type="line"/>
      <point x="583" y="475" type="line"/>
      <point x="312" y="475" type="line"/>
      <point x="312" y="418" type="line"/>
    </contour>
    <contour>
      <point x="407" y="475" type="line"/>
      <point x="560" y="381" type="line"/>
      <point x="579" y="390"/>
      <point x="595" y="403"/>
      <point x="610" y="418" type="curve"/>
      <point x="610" y="475" type="line"/>
    </contour>
    <contour>
      <point x="346" y="0" type="line"/>
      <point x="589" y="0" type="line"/>
      <point x="290" y="475" type="line"/>
      <point x="58" y="437" type="line"/>
    </contour>
    <contour>
      <point x="560" y="381" type="line"/>
      <point x="584" y="475" type="line"/>
      <point x="361" y="475" type="line"/>
      <point x="360" y="317" type="line"/>
      <point x="389" y="206" type="line"/>
    </contour>
    <contour>
      <point x="18" y="29" type="line"/>
      <point x="18" y="0" type="line"/>
      <point x="276" y="0" type="line"/>
      <point x="277" y="156" type="line"/>
      <point x="224" y="250" type="line"/>
    </contour>
    <contour>
      <point x="139" y="0" type="line"/>
      <point x="146" y="93" type="line"/>
      <point x="99" y="84"/>
      <point x="52" y="65"/>
      <point x="5" y="36" type="curve"/>
      <point x="5" y="0" type="line"/>
    </contour>
    <contour>
      <point x="339" y="0" type="line"/>
      <point x="339" y="49" type="line"/>
      <point x="293" y="85"/>
      <point x="246" y="111"/>
      <point x="200" y="127" type="curve"/>
      <point x="159" y="0" type="line"/>
    </contour>
    <contour>
      <point x="425" y="0" type="line"/>
      <point x="432" y="93" type="line"/>
      <point x="385" y="84"/>
      <point x="338" y="65"/>
      <point x="291" y="36" type="curve"/>
      <point x="291" y="0" type="line"/>
    </contour>
    <contour>
      <point x="623" y="0" type="line"/>
      <point x="623" y="49" type="line"/>
      <point x="577" y="85"/>
      <point x="530" y="111"/>
      <point x="484" y="127" type="curve"/>
      <point x="443" y="0" type="line"/>
    </contour>
  </outline>
</glyph>
<glyph name="y" format="1">
  <advance width="628"/>
  <unicode hex="0079"/>
  <outline>
    <contour>
      <point x="-20" y="418" type="line"/>
      <point x="199" y="257" type="line"/>
      <point x="251" y="475" type="line"/>
      <point x="-20" y="475" type="line"/>
    </contour>
    <contour>
      <point x="205" y="475" type="line"/>
      <point x="288" y="381" type="line"/>
      <point x="307" y="390"/>
      <point x="323" y="403"/>
      <point x="338" y="418" type="curve"/>
      <point x="338" y="475" type="line"/>
    </contour>
    <contour>
      <point x="303" y="418" type="line"/>
      <point x="457" y="305" type="line"/>
      <point x="442" y="475" type="line"/>
      <point x="303" y="475" type="line"/>
    </contour>
    <contour>
      <point x="410" y="475" type="line"/>
      <point x="563" y="381" type="line"/>
      <point x="582" y="390"/>
      <point x="598" y="403"/>
      <point x="613" y="418" type="curve"/>
      <point x="613" y="475" type="line"/>
    </contour>
    <contour>
      <point x="340" y="-132"/>
      <point x="424" y="-37"/>
      <point x="494" y="101" type="curve" smooth="yes"/>
      <point x="555" y="221"/>
      <point x="572" y="357"/>
      <point x="606" y="475" type="curve"/>
      <point x="352" y="475" type="line"/>
      <point x="359" y="392"/>
      <point x="355" y="310"/>
      <point x="338" y="227" type="curve"/>
      <point x="323" y="227" type="line"/>
      <point x="313" y="262" type="line"/>
      <point x="261" y="475" type="line"/>
      <point x="36" y="437" type="line"/>
      <point x="173" y="40" type="line"/>
      <point x="210" y="22"/>
      <point x="239" y="15"/>
      <point x="276" y="17" type="curve"/>
      <point x="214" y="-12"/>
      <point x="141" y="-30"/>
      <point x="59" y="-39" type="curve"/>
      <point x="175" y="-228" type="line"/>
    </contour>
    <contour>
      <point x="320" y="468" type="move" name="top"/>
    </contour>
  </outline>
</glyph>
<glyph name="z" format="1">
  <advance width="533"/>
  <unicode hex="007A"/>
  <outline>
    <contour>
      <point x="152" y="286" type="line"/>
      <point x="238" y="447" type="line"/>
      <point x="30" y="475" type="line"/>
      <point x="20" y="421"/>
      <point x="20" y="348"/>
      <point x="30" y="294" type="curve"/>
    </contour>
    <contour>
      <point x="30" y="349" type="line"/>
      <point x="424" y="433" type="line"/>
      <point x="462" y="475" type="line"/>
      <point x="30" y="475" type="line"/>
    </contour>
    <contour>
      <point x="456" y="498" type="line"/>
      <point x="393" y="457" type="line"/>
      <point x="300" y="470" type="line"/>
      <point x="4" y="41" type="line"/>
      <point x="76" y="-19" type="line"/>
      <point x="160" y="36" type="line"/>
      <point x="242" y="32" type="line"/>
      <point x="532" y="437" type="line"/>
    </contour>
    <contour>
      <point x="457" y="198" type="line"/>
      <point x="406" y="149" type="line"/>
      <point x="126" y="74" type="line"/>
      <point x="102" y="26" type="line"/>
      <point x="474" y="-21" type="line"/>
      <point x="499" y="52"/>
      <point x="513" y="125"/>
      <point x="518" y="198" type="curve"/>
    </contour>
    <contour>
      <point x="281" y="468" type="move" name="top"/>
    </contour>
  </outline>
</glyph>
<glyph name="dvCandrabindu" format="1">
  <advance width="0"/>
  <unicode hex="0901"/>
  <outline>
    <contour>
      <point x="-115" y="974" type="line"/>
      <point x="-128" y="896"/>
      <point x="-185" y="853"/>
      <point x="-248" y="853" type="curve" smooth="yes"/>
      <point x="-304" y="853"/>
      <point x="-363" y="887"/>
      <point x="-404" y="972" type="curve"/>
      <point x="-487" y="906" type="line"/>
      <point x="-433" y="768"/>
      <point x="-310" y="699"/>
      <point x="-204" y="699" type="curve" smooth="yes"/>
      <point x="-84" y="699"/>
      <point x="5" y="788"/>
      <point x="24" y="900" type="curve"/>
    </contour>
    <contour>
      <point x="-204" y="926"/>
      <point x="-167" y="973"/>
      <point x="-152" y="1013" type="curve"/>
      <point x="-174" y="1042"/>
      <point x="-220" y="1084"/>
      <point x="-260" y="1100" type="curve"/>
      <point x="-294" y="1080"/>
      <point x="-329" y="1033"/>
      <point x="-351" y="990" type="curve"/>
      <point x="-327" y="957"/>
      <point x="-274" y="917"/>
      <point x="-238" y="903" type="curve"/>
    </contour>
  </outline>
</glyph>
<glyph name="dvUu" format="1">
  <advance width="895"/>
  <unicode hex="090A"/>
  <outline>
    <contour>
      <point x="935" y="538" type="line"/>
      <point x="960" y="587" type="line"/>
      <point x="895" y="670" type="line"/>
      <point x="450" y="670" type="line"/>
      <point x="425" y="621" type="line"/>
      <point x="490" y="538" type="line"/>
    </contour>
    <contour>
      <point x="724" y="-20" type="line"/>
      <point x="818" y="43"/>
      <point x="874" y="112"/>
      <point x="874" y="199" type="curve" smooth="yes"/>
      <point x="874" y="310"/>
      <point x="781" y="428"/>
      <point x="660" y="428" type="curve" smooth="yes"/>
      <point x="584" y="428"/>
      <point x="504" y="381"/>
      <point x="432" y="287" type="curve"/>
      <point x="524" y="146" type="line"/>
      <point x="596" y="222"/>
      <point x="669" y="281"/>
      <point x="707" y="281" type="curve" smooth="yes"/>
      <point x="722" y="281"/>
      <point x="732" y="272"/>
      <point x="732" y="258" type="curve" smooth="yes"/>
      <point x="732" y="222"/>
      <point x="661" y="165"/>
      <point x="600" y="115" type="curve"/>
    </contour>
    <component base="dvU"/>
  </outline>
</glyph>
<glyph name="dvKa" format="1">
  <advance width="845"/>
  <unicode hex="0915"/>
  <outline>
    <contour>
      <point x="249" y="480" type="line"/>
      <point x="103" y="510"/>
      <point x="18" y="409"/>
      <point x="18" y="310" type="curve" smooth="yes"/>
      <point x="18" y="169"/>
      <point x="187" y="82"/>
      <point x="298" y="82" type="curve" smooth="yes"/>
      <point x="365" y="82"/>
      <point x="406" y="113"/>
      <point x="445" y="154" type="curve"/>
      <point x="357" y="322" type="line"/>
      <point x="324" y="251"/>
      <point x="261" y="217"/>
      <point x="216" y="208" type="curve"/>
      <point x="178" y="265"/>
      <point x="213" y="347"/>
      <point x="294" y="347" type="curve" smooth="yes"/>
      <point x="330" y="347"/>
      <point x="368" y="331"/>
      <point x="420" y="294" type="curve"/>
      <point x="444" y="375" type="line"/>
    </contour>
    <contour>
      <point x="885" y="538" type="line"/>
      <point x="910" y="587" type="line"/>
      <point x="845" y="670" type="line"/>
      <point x="-40" y="670" type="line"/>
      <point x="-65" y="621" type="line"/>
      <point x="0" y="538" type="line"/>
    </contour>
    <contour>
      <point x="332" y="23" type="line"/>
      <point x="464" y="-46" type="line"/>
      <point x="518" y="-19" type="line"/>
      <point x="518" y="486" type="line"/>
      <point x="398" y="568" type="line"/>
      <point x="332" y="599" type="line"/>
    </contour>
    <contour>
      <point x="456" y="123" type="line"/>
      <point x="505" y="201"/>
      <point x="593" y="294"/>
      <point x="639" y="294" type="curve" smooth="yes"/>
      <point x="655" y="294"/>
      <point x="662" y="283"/>
      <point x="662" y="272" type="curve" smooth="yes"/>
      <point x="662" y="242"/>
      <point x="608" y="180"/>
      <point x="531" y="130" type="curve"/>
      <point x="650" y="-7" type="line"/>
      <point x="752" y="54"/>
      <point x="822" y="137"/>
      <point x="822" y="231" type="curve" smooth="yes"/>
      <point x="822" y="341"/>
      <point x="726" y="464"/>
      <point x="610" y="464" type="curve" smooth="yes"/>
      <point x="503" y="464"/>
      <point x="431" y="361"/>
      <point x="378" y="262" type="curve"/>
    </contour>
  </outline>
</glyph>
<glyph name="dvCha" format="1">
  <advance width="799"/>
  <unicode hex="091B"/>
  <outline>
    <contour>
      <point x="426" y="163" type="line"/>
      <point x="352" y="284" type="line"/>
      <point x="199" y="321"/>
      <point x="97" y="237"/>
      <point x="97" y="137" type="curve" smooth="yes"/>
      <point x="97" y="21"/>
      <point x="236" y="-92"/>
      <point x="404" y="-92" type="curve" smooth="yes"/>
      <point x="612" y="-92"/>
      <point x="759" y="81"/>
      <point x="759" y="239" type="curve" smooth="yes"/>
      <point x="759" y="373"/>
      <point x="654" y="502"/>
      <point x="530" y="502" type="curve" smooth="yes"/>
      <point x="443" y="502"/>
      <point x="367" y="437"/>
      <point x="367" y="358" type="curve" smooth="yes"/>
      <point x="367" y="263"/>
      <point x="474" y="166"/>
      <point x="585" y="129" type="curve"/>
      <point x="620" y="193" type="line"/>
      <point x="549" y="217"/>
      <point x="518" y="274"/>
      <point x="518" y="320" type="curve" smooth="yes"/>
      <point x="518" y="362"/>
      <point x="545" y="395"/>
      <point x="594" y="383" type="curve"/>
      <point x="607" y="358"/>
      <point x="613" y="332"/>
      <point x="613" y="305" type="curve" smooth="yes"/>
      <point x="613" y="178"/>
      <point x="484" y="45"/>
      <point x="329" y="45" type="curve" smooth="yes"/>
      <point x="302" y="45"/>
      <point x="281" y="49"/>
      <point x="268" y="57" type="curve"/>
      <point x="266" y="63"/>
      <point x="265" y="69"/>
      <point x="265" y="75" type="curve" smooth="yes"/>
      <point x="265" y="117"/>
      <point x="319" y="145"/>
      <point x="388" y="116" type="curve"/>
    </contour>
    <contour>
      <point x="483" y="411" type="line"/>
      <point x="649" y="370" type="line"/>
      <point x="649" y="486" type="line"/>
      <point x="529" y="568" type="line"/>
      <point x="483" y="599" type="line"/>
    </contour>
    <contour>
      <point x="820" y="538" type="line"/>
      <point x="845" y="587" type="line"/>
      <point x="780" y="670" type="line"/>
      <point x="-40" y="670" type="line"/>
      <point x="-65" y="621" type="line"/>
      <point x="0" y="538" type="line"/>
    </contour>
    <contour>
      <point x="330" y="392" type="line"/>
      <point x="256" y="500" type="line"/>
      <point x="151" y="500" type="line" smooth="yes"/>
      <point x="39" y="500"/>
      <point x="-9" y="434"/>
      <point x="-9" y="369" type="curve" smooth="yes"/>
      <point x="-9" y="293"/>
      <point x="57" y="221"/>
      <point x="165" y="175" type="curve"/>
      <point x="220" y="238" type="line"/>
      <point x="168" y="266"/>
      <point x="152" y="283"/>
      <point x="152" y="303" type="curve" smooth="yes"/>
      <point x="152" y="332"/>
      <point x="188" y="343"/>
      <point x="220" y="343" type="curve" smooth="yes"/>
      <point x="305" y="343" type="line"/>
    </contour>
  </outline>
</glyph>
<glyph name="dvTtha" format="1">
  <advance width="660"/>
  <unicode hex="0920"/>
  <outline>
    <contour>
      <point x="395" y="303" type="line"/>
      <point x="434" y="276"/>
      <point x="448" y="232"/>
      <point x="448" y="203" type="curve" smooth="yes"/>
      <point x="448" y="147"/>
      <point x="396" y="103"/>
      <point x="313" y="103" type="curve" smooth="yes"/>
      <point x="278" y="103"/>
      <point x="248" y="111"/>
      <point x="222" y="126" type="curve"/>
      <point x="211" y="143"/>
      <point x="205" y="162"/>
      <point x="205" y="180" type="curve" smooth="yes"/>
      <point x="205" y="226"/>
      <point x="241" y="266"/>
      <point x="317" y="266" type="curve" smooth="yes"/>
      <point x="478" y="266" type="line"/>
      <point x="392" y="435" type="line"/>
      <point x="277" y="435" type="line" smooth="yes"/>
      <point x="105" y="435"/>
      <point x="29" y="342"/>
      <point x="29" y="242" type="curve" smooth="yes"/>
      <point x="29" y="91"/>
      <point x="199" y="-56"/>
      <point x="389" y="-56" type="curve" smooth="yes"/>
      <point x="538" y="-56"/>
      <point x="620" y="35"/>
      <point x="620" y="140" type="curve" smooth="yes"/>
      <point x="620" y="242"/>
      <point x="543" y="345"/>
      <point x="441" y="395" type="curve"/>
    </contour>
    <contour>
      <point x="309" y="303" type="line"/>
      <point x="488" y="266" type="line"/>
      <point x="488" y="486" type="line"/>
      <point x="368" y="568" type="line"/>
      <point x="309" y="599" type="line"/>
    </contour>
    <contour>
      <point x="700" y="538" type="line"/>
      <point x="725" y="587" type="line"/>
      <point x="660" y="670" type="line"/>
      <point x="-40" y="670" type="line"/>
      <point x="-65" y="621" type="line"/>
      <point x="0" y="538" type="line"/>
    </contour>
  </outline>
</glyph>
<glyph name="dvTa" format="1">
  <advance width="645"/>
  <unicode hex="0924"/>
  <outline>
    <contour>
      <point x="427" y="456" type="line"/>
      <point x="247" y="456" type="line" smooth="yes"/>
      <point x="94" y="456"/>
      <point x="21" y="371"/>
      <point x="21" y="274" type="curve" smooth="yes"/>
      <point x="21" y="170"/>
      <point x="105" y="65"/>
      <point x="224" y="-48" type="curve"/>
      <point x="322" y="35" type="line"/>
      <point x="262" y="95"/>
      <point x="216" y="155"/>
      <point x="216" y="202" type="curve" smooth="yes"/>
      <point x="216" y="241"/>
      <point x="247" y="279"/>
      <point x="308" y="279" type="curve" smooth="yes"/>
      <point x="438" y="279" type="line"/>
    </contour>
    <contour>
      <point x="685" y="538" type="line"/>
      <point x="710" y="587" type="line"/>
      <point x="645" y="670" type="line"/>
      <point x="-40" y="670" type="line"/>
      <point x="-65" y="621" type="line"/>
      <point x="0" y="538" type="line"/>
    </contour>
    <contour>
      <point x="389" y="23" type="line"/>
      <point x="521" y="-46" type="line"/>
      <point x="575" y="-19" type="line"/>
      <point x="575" y="486" type="line"/>
      <point x="455" y="568" type="line"/>
      <point x="389" y="599" type="line"/>
    </contour>
  </outline>
</glyph>
<glyph name="dvPha" format="1">
  <advance width="869"/>
  <unicode hex="092B"/>
  <outline>
    <contour>
      <point x="909" y="538" type="line"/>
      <point x="934" y="587" type="line"/>
      <point x="869" y="670" type="line"/>
      <point x="-40" y="670" type="line"/>
      <point x="-65" y="621" type="line"/>
      <point x="0" y="538" type="line"/>
    </contour>
    <contour>
      <point x="347" y="23" type="line"/>
      <point x="479" y="-46" type="line"/>
      <point x="533" y="-19" type="line"/>
      <point x="533" y="486" type="line"/>
      <point x="413" y="568" type="line"/>
      <point x="347" y="599" type="line"/>
    </contour>
    <contour>
      <point x="453" y="123" type="line"/>
      <point x="505" y="195"/>
      <point x="617" y="292"/>
      <point x="663" y="292" type="curve" smooth="yes"/>
      <point x="678" y="292"/>
      <point x="685" y="281"/>
      <point x="685" y="270" type="curve" smooth="yes"/>
      <point x="685" y="240"/>
      <point x="632" y="180"/>
      <point x="555" y="130" type="curve"/>
      <point x="674" y="-7" type="line"/>
      <point x="776" y="54"/>
      <point x="846" y="137"/>
      <point x="846" y="231" type="curve" smooth="yes"/>
      <point x="846" y="341"/>
      <point x="750" y="466"/>
      <point x="634" y="466" type="curve" smooth="yes"/>
      <point x="527" y="466"/>
      <point x="435" y="361"/>
      <point x="382" y="262" type="curve"/>
    </contour>
    <contour>
      <point x="40" y="398" type="line" smooth="yes"/>
      <point x="40" y="270"/>
      <point x="222" y="123"/>
      <point x="338" y="123" type="curve" smooth="yes"/>
      <point x="397" y="123"/>
      <point x="448" y="161"/>
      <point x="485" y="216" type="curve"/>
      <point x="382" y="373" type="line"/>
      <point x="365" y="315"/>
      <point x="325" y="275"/>
      <point x="272" y="275" type="curve" smooth="yes"/>
      <point x="258" y="275"/>
      <point x="247" y="278"/>
      <point x="237" y="283" type="curve"/>
      <point x="237" y="486" type="line"/>
      <point x="117" y="568" type="line"/>
      <point x="40" y="599" type="line"/>
    </contour>
  </outline>
</glyph>
<glyph name="dvSsa" format="1">
  <advance width="653"/>
  <unicode hex="0937"/>
  <outline>
    <contour>
      <point x="693" y="538" type="line"/>
      <point x="718" y="587" type="line"/>
      <point x="653" y="670" type="line"/>
      <point x="-40" y="670" type="line"/>
      <point x="-65" y="621" type="line"/>
      <point x="0" y="538" type="line"/>
    </contour>
    <contour>
      <point x="397" y="23" type="line"/>
      <point x="529" y="-46" type="line"/>
      <point x="583" y="-19" type="line"/>
      <point x="583" y="486" type="line"/>
      <point x="463" y="568" type="line"/>
      <point x="397" y="599" type="line"/>
    </contour>
    <contour>
      <point x="126" y="616" type="line"/>
      <point x="379" y="240" type="line"/>
      <point x="445" y="271" type="line"/>
      <point x="196" y="642" type="line"/>
    </contour>
    <contour>
      <point x="411" y="410" type="line"/>
      <point x="411" y="297"/>
      <point x="326" y="257"/>
      <point x="262" y="257" type="curve" smooth="yes"/>
      <point x="247" y="257"/>
      <point x="234" y="259"/>
      <point x="222" y="263" type="curve"/>
      <point x="222" y="558" type="line"/>
      <point x="148" y="598" type="line"/>
      <point x="30" y="599" type="line"/>
      <point x="30" y="378" type="line" smooth="yes"/>
      <point x="30" y="250"/>
      <point x="216" y="103"/>
      <point x="337" y="103" type="curve" smooth="yes"/>
      <point x="422" y="103"/>
      <point x="517" y="177"/>
      <point x="559" y="301" type="curve"/>
    </contour>
  </outline>
</glyph>
<glyph name="dvSa" format="1">
  <advance width="809"/>
  <unicode hex="0938"/>
  <outline>
    <contour>
      <point x="849" y="538" type="line"/>
      <point x="874" y="587" type="line"/>
      <point x="809" y="670" type="line"/>
      <point x="453" y="670" type="line"/>
      <point x="428" y="621" type="line"/>
      <point x="493" y="538" type="line"/>
    </contour>
    <contour>
      <point x="553" y="23" type="line"/>
      <point x="685" y="-46" type="line"/>
      <point x="739" y="-19" type="line"/>
      <point x="739" y="486" type="line"/>
      <point x="619" y="568" type="line"/>
      <point x="553" y="599" type="line"/>
    </contour>
    <contour>
      <point x="632" y="210" type="line"/>
      <point x="622" y="359" type="line"/>
      <point x="238" y="359" type="line"/>
      <point x="239" y="210" type="line"/>
    </contour>
    <component base="dvRa" xOffset="-10"/>
  </outline>
</glyph>
<glyph name="dvNukta" format="1">
  <advance width="600"/>
  <unicode hex="093C"/>
  <outline>
    <contour>
      <point x="58" y="-275"/>
      <point x="97" y="-226"/>
      <point x="113" y="-184" type="curve"/>
      <point x="90" y="-154"/>
      <point x="41" y="-109"/>
      <point x="-1" y="-93" type="curve"/>
      <point x="-36" y="-114"/>
      <point x="-73" y="-163"/>
      <point x="-96" y="-208" type="curve"/>
      <point x="-71" y="-243"/>
      <point x="-15" y="-285"/>
      <point x="22" y="-299" type="curve"/>
    </contour>
  </outline>
</glyph>
<glyph name="dvMatraI" format="1">
  <advance width="316"/>
  <unicode hex="093F"/>
  <outline>
    <contour>
      <point x="356" y="538" type="line"/>
      <point x="381" y="587" type="line"/>
      <point x="316" y="670" type="line"/>
      <point x="-40" y="670" type="line"/>
      <point x="-65" y="621" type="line"/>
      <point x="0" y="538" type="line"/>
    </contour>
    <contour>
      <point x="60" y="23" type="line"/>
      <point x="192" y="-46" type="line"/>
      <point x="246" y="-19" type="line"/>
      <point x="246" y="486" type="line"/>
      <point x="126" y="568" type="line"/>
      <point x="60" y="599" type="line"/>
    </contour>
    <contour>
      <point x="798" y="753" type="line"/>
      <point x="566" y="970"/>
      <point x="368" y="1032"/>
      <point x="247" y="1032" type="curve" smooth="yes"/>
      <point x="118" y="1032"/>
      <point x="-4" y="962"/>
      <point x="-4" y="825" type="curve" smooth="yes"/>
      <point x="-4" y="756"/>
      <point x="28" y="698"/>
      <point x="82" y="651" type="curve"/>
      <point x="188" y="651" type="line"/>
      <point x="162" y="685"/>
      <point x="149" y="712"/>
      <point x="149" y="744" type="curve" smooth="yes"/>
      <point x="149" y="822"/>
      <point x="226" y="863"/>
      <point x="322" y="863" type="curve" smooth="yes"/>
      <point x="451" y="863"/>
      <point x="601" y="789"/>
      <point x="741" y="679" type="curve"/>
    </contour>
  </outline>
</glyph>
<glyph name="dvMatraCandraE" format="1">
  <advance width="0"/>
  <unicode hex="0945"/>
  <outline>
    <contour>
      <point x="-111" y="984" type="line"/>
      <point x="-124" y="906"/>
      <point x="-161" y="863"/>
      <point x="-224" y="863" type="curve" smooth="yes"/>
      <point x="-280" y="863"/>
      <point x="-319" y="897"/>
      <point x="-360" y="982" type="curve"/>
      <point x="-443" y="916" type="line"/>
      <point x="-389" y="778"/>
      <point x="-286" y="709"/>
      <point x="-180" y="709" type="curve" smooth="yes"/>
      <point x="-60" y="709"/>
      <point x="9" y="798"/>
      <point x="28" y="910" type="curve"/>
    </contour>
  </outline>
</glyph>
<glyph name="dvMatraShortE" format="1">
  <advance width="0"/>
  <unicode hex="0946"/>
  <outline>
    <contour>
      <point x="-615" y="1056" type="line"/>
      <point x="-615" y="626"/>
      <point x="-225" y="855"/>
      <point x="-215" y="642" type="curve"/>
      <point x="-104" y="642" type="line"/>
      <point x="-107" y="1083"/>
      <point x="-476" y="819"/>
      <point x="-511" y="1066" type="curve"/>
    </contour>
  </outline>
</glyph>
<glyph name="dvMatraE" format="1">
  <advance width="0"/>
  <unicode hex="0947"/>
  <outline>
    <contour>
      <point x="-531" y="759" type="line"/>
      <point x="-404" y="843"/>
      <point x="-335" y="833"/>
      <point x="-279" y="733" type="curve" smooth="yes"/>
      <point x="-206" y="603" type="line"/>
      <point x="-106" y="649" type="line"/>
      <point x="-196" y="800" type="line" smooth="yes"/>
      <point x="-301" y="976"/>
      <point x="-429" y="1070"/>
      <point x="-628" y="951" type="curve"/>
    </contour>
  </outline>
</glyph>
<glyph name="dvHalant" format="1">
  <advance width="0"/>
  <unicode hex="094D"/>
  <outline>
    <contour>
      <point x="130" y="-278" type="line"/>
      <point x="-29" y="-127" type="line" smooth="yes"/>
      <point x="-77" y="-81"/>
      <point x="-123" y="-61"/>
      <point x="-167" y="-61" type="curve" smooth="yes"/>
      <point x="-221" y="-61"/>
      <point x="-272" y="-93"/>
      <point x="-317" y="-143" type="curve"/>
      <point x="-208" y="-273" type="line"/>
      <point x="-105" y="-197" type="line"/>
      <point x="62" y="-349" type="line"/>
    </contour>
  </outline>
</glyph>
<glyph name="dvDanda" format="1">
  <advance width="500"/>
  <unicode hex="0964"/>
  <outline>
    <contour>
      <point x="274" y="704" type="line"/>
      <point x="220" y="677" type="line"/>
      <point x="220" y="23" type="line"/>
      <point x="352" y="-67" type="line"/>
      <point x="406" y="-40" type="line"/>
      <point x="406" y="614" type="line"/>
    </contour>
  </outline>
</glyph>
<glyph name="dvThree" format="1">
  <advance width="609"/>
  <unicode hex="0969"/>
  <outline>
    <contour>
      <point x="211" y="221" type="line"/>
      <point x="387" y="288" type="line"/>
      <point x="335" y="282" type="line"/>
      <point x="384" y="275"/>
      <point x="408" y="254"/>
      <point x="408" y="223" type="curve" smooth="yes"/>
      <point x="408" y="173"/>
      <point x="345" y="133"/>
      <point x="272" y="133" type="curve" smooth="yes"/>
      <point x="239" y="133"/>
      <point x="206" y="141"/>
      <point x="173" y="156" type="curve"/>
      <point x="193" y="4" type="line"/>
      <point x="237" y="-18"/>
      <point x="285" y="-29"/>
      <point x="333" y="-29" type="curve" smooth="yes"/>
      <point x="458" y="-29"/>
      <point x="578" y="45"/>
      <point x="578" y="164" type="curve" smooth="yes"/>
      <point x="578" y="269"/>
      <point x="484" y="346"/>
      <point x="339" y="412" type="curve"/>
      <point x="298" y="425" type="line"/>
      <point x="244" y="434"/>
      <point x="156" y="415"/>
      <point x="113" y="376" type="curve"/>
    </contour>
    <contour>
      <point x="430" y="-193" type="line"/>
      <point x="430" y="-139" type="line"/>
      <point x="168" y="79" type="line"/>
      <point x="111" y="46" type="line"/>
      <point x="341" y="-252" type="line"/>
    </contour>
    <contour>
      <point x="38" y="58" type="line"/>
      <point x="73" y="28"/>
      <point x="144" y="-16"/>
      <point x="201" y="-28" type="curve"/>
      <point x="276" y="19" type="line"/>
      <point x="160" y="214" type="line"/>
      <point x="104" y="212" type="line"/>
    </contour>
    <contour>
      <point x="108" y="437" type="line"/>
      <point x="170" y="488"/>
      <point x="251" y="542"/>
      <point x="319" y="561" type="curve"/>
      <point x="342" y="545"/>
      <point x="354" y="522"/>
      <point x="354" y="500" type="curve" smooth="yes"/>
      <point x="354" y="457"/>
      <point x="312" y="413"/>
      <point x="226" y="406" type="curve"/>
      <point x="396" y="291" type="line"/>
      <point x="460" y="325"/>
      <point x="530" y="390"/>
      <point x="530" y="471" type="curve" smooth="yes"/>
      <point x="530" y="581"/>
      <point x="401" y="694"/>
      <point x="251" y="694" type="curve" smooth="yes"/>
      <point x="174" y="694"/>
      <point x="72" y="664"/>
      <point x="0" y="599" type="curve"/>
    </contour>
  </outline>
</glyph>
<glyph name="dvFive" format="1">
  <advance width="617"/>
  <unicode hex="096B"/>
  <outline>
    <contour>
      <point x="486" y="263" type="line"/>
      <point x="466" y="159"/>
      <point x="381" y="107"/>
      <point x="304" y="107" type="curve" smooth="yes"/>
      <point x="251" y="107"/>
      <point x="194" y="131"/>
      <point x="146" y="171" type="curve" smooth="yes"/>
      <point x="80" y="225"/>
      <point x="30" y="308"/>
      <point x="30" y="396" type="curve" smooth="yes"/>
      <point x="30" y="464"/>
      <point x="60" y="567"/>
      <point x="119" y="672" type="curve"/>
      <point x="291" y="601" type="line"/>
      <point x="229" y="469"/>
      <point x="203" y="376"/>
      <point x="198" y="306" type="curve"/>
      <point x="238" y="238"/>
      <point x="361" y="248"/>
      <point x="373" y="388" type="curve"/>
    </contour>
    <contour>
      <point x="429" y="-64" type="line"/>
      <point x="376" y="329" type="line"/>
      <point x="476" y="310" type="line"/>
      <point x="595" y="12" type="line"/>
      <point x="572" y="-38" type="line"/>
    </contour>
    <contour>
      <point x="425" y="267" type="line"/>
      <point x="390" y="280" type="line"/>
      <point x="329" y="461" type="line"/>
      <point x="370" y="501" type="line"/>
      <point x="534" y="442" type="line"/>
      <point x="536" y="377"/>
      <point x="503" y="274"/>
      <point x="478" y="233" type="curve"/>
    </contour>
  </outline>
</glyph>
<glyph name="dvSix" format="1">
  <advance width="600"/>
  <unicode hex="096C"/>
  <outline>
    <contour>
      <point x="373" y="204" type="line"/>
      <point x="384" y="60" type="line"/>
      <point x="475" y="9" type="line"/>
      <point x="510" y="26"/>
      <point x="544" y="64"/>
      <point x="560" y="98" type="curve"/>
      <point x="444" y="234" type="line"/>
    </contour>
    <contour>
      <point x="429" y="424" type="line"/>
      <point x="385" y="432"/>
      <point x="336" y="436"/>
      <point x="301" y="436" type="curve" smooth="yes"/>
      <point x="117" y="436"/>
      <point x="46" y="327"/>
      <point x="46" y="228" type="curve" smooth="yes"/>
      <point x="46" y="144"/>
      <point x="98" y="74"/>
      <point x="164" y="30" type="curve" smooth="yes"/>
      <point x="218" y="-6"/>
      <point x="283" y="-27"/>
      <point x="344" y="-27" type="curve" smooth="yes"/>
      <point x="385" y="-27"/>
      <point x="434" y="-17"/>
      <point x="466" y="4" type="curve"/>
      <point x="429" y="200" type="line"/>
      <point x="381" y="131"/>
      <point x="258" y="116"/>
      <point x="211" y="139" type="curve"/>
      <point x="203" y="152"/>
      <point x="199" y="166"/>
      <point x="199" y="180" type="curve" smooth="yes"/>
      <point x="199" y="225"/>
      <point x="245" y="268"/>
      <point x="344" y="268" type="curve" smooth="yes"/>
      <point x="370" y="268"/>
      <point x="404" y="265"/>
      <point x="436" y="259" type="curve"/>
    </contour>
    <contour>
      <point x="244" y="388"/>
      <point x="185" y="417"/>
      <point x="185" y="462" type="curve" smooth="yes"/>
      <point x="185" y="501"/>
      <point x="231" y="526"/>
      <point x="297" y="526" type="curve" smooth="yes"/>
      <point x="341" y="526"/>
      <point x="395" y="515"/>
      <point x="452" y="489" type="curve"/>
      <point x="456" y="654" type="line"/>
      <point x="392" y="680"/>
      <point x="330" y="694"/>
      <point x="265" y="694" type="curve" smooth="yes"/>
      <point x="117" y="694"/>
      <point x="29" y="621"/>
      <point x="29" y="519" type="curve" smooth="yes"/>
      <point x="29" y="441"/>
      <point x="81" y="387"/>
      <point x="197" y="316" type="curve"/>
      <point x="293" y="375" type="line"/>
    </contour>
    <contour>
      <point x="586" y="-126" type="line"/>
      <point x="466" y="94" type="line"/>
      <point x="399" y="61" type="line"/>
      <point x="464" y="-208" type="line"/>
      <point x="570" y="-175" type="line"/>
    </contour>
  </outline>
</glyph>
<glyph name="dvSeven" format="1">
  <advance width="613"/>
  <unicode hex="096D"/>
  <outline>
    <contour>
      <point x="-58" y="531" type="line"/>
      <point x="-16" y="265"/>
      <point x="143" y="-31"/>
      <point x="377" y="-31" type="curve" smooth="yes"/>
      <point x="518" y="-31"/>
      <point x="603" y="77"/>
      <point x="603" y="220" type="curve" smooth="yes"/>
      <point x="603" y="388"/>
      <point x="487" y="582"/>
      <point x="336" y="582" type="curve" smooth="yes"/>
      <point x="242" y="582"/>
      <point x="186" y="508"/>
      <point x="186" y="434" type="curve" smooth="yes"/>
      <point x="186" y="374"/>
      <point x="223" y="312"/>
      <point x="279" y="266" type="curve" smooth="yes"/>
      <point x="319" y="233"/>
      <point x="369" y="209"/>
      <point x="418" y="209" type="curve" smooth="yes"/>
      <point x="448" y="209"/>
      <point x="480" y="218"/>
      <point x="510" y="239" type="curve"/>
      <point x="516" y="428" type="line"/>
      <point x="491" y="351"/>
      <point x="382" y="316"/>
      <point x="342" y="323" type="curve"/>
      <point x="325" y="352"/>
      <point x="339" y="421"/>
      <point x="398" y="421" type="curve" smooth="yes"/>
      <point x="451" y="421"/>
      <point x="477" y="367"/>
      <point x="477" y="297" type="curve" smooth="yes"/>
      <point x="477" y="201"/>
      <point x="428" y="150"/>
      <point x="353" y="150" type="curve" smooth="yes"/>
      <point x="247" y="150"/>
      <point x="138" y="251"/>
      <point x="76" y="576" type="curve"/>
    </contour>
  </outline>
</glyph>
<glyph name="dvEight" format="1">
  <advance width="548"/>
  <unicode hex="096E"/>
  <outline>
    <contour>
      <point x="328" y="668" type="line"/>
      <point x="146" y="430" type="line" smooth="yes"/>
      <point x="88" y="354"/>
      <point x="62" y="289"/>
      <point x="62" y="234" type="curve" smooth="yes"/>
      <point x="62" y="107"/>
      <point x="198" y="-33"/>
      <point x="336" y="-33" type="curve" smooth="yes"/>
      <point x="413" y="-33"/>
      <point x="494" y="10"/>
      <point x="552" y="105" type="curve"/>
      <point x="439" y="232" type="line"/>
      <point x="384" y="154"/>
      <point x="334" y="123"/>
      <point x="292" y="123" type="curve" smooth="yes"/>
      <point x="250" y="123"/>
      <point x="222" y="154"/>
      <point x="222" y="193" type="curve" smooth="yes"/>
      <point x="222" y="224"/>
      <point x="241" y="252"/>
      <point x="296" y="324" type="curve" smooth="yes"/>
      <point x="449" y="523" type="line"/>
    </contour>
  </outline>
</glyph>
<glyph name="dvNine" format="1">
  <advance width="528"/>
  <unicode hex="096F"/>
  <outline>
    <contour>
      <point x="98" y="694"/>
      <point x="13" y="599"/>
      <point x="16" y="494" type="curve" smooth="yes"/>
      <point x="19" y="408"/>
      <point x="80" y="331"/>
      <point x="161" y="256" type="curve" smooth="yes"/>
      <point x="319" y="110" type="line" smooth="yes"/>
      <point x="363" y="69"/>
      <point x="358" y="24"/>
      <point x="322" y="-17" type="curve"/>
      <point x="499" y="-86" type="line"/>
      <point x="526" y="-52"/>
      <point x="538" y="-19"/>
      <point x="538" y="12" type="curve" smooth="yes"/>
      <point x="538" y="77"/>
      <point x="485" y="130"/>
      <point x="428" y="178" type="curve" smooth="yes"/>
      <point x="270" y="310" type="line" smooth="yes"/>
      <point x="205" y="365"/>
      <point x="174" y="405"/>
      <point x="174" y="452" type="curve" smooth="yes"/>
      <point x="174" y="504"/>
      <point x="212" y="541"/>
      <point x="249" y="541" type="curve" smooth="yes"/>
      <point x="279" y="541"/>
      <point x="302" y="517"/>
      <point x="302" y="486" type="curve" smooth="yes"/>
      <point x="302" y="426"/>
      <point x="216" y="372"/>
      <point x="152" y="344" type="curve"/>
      <point x="281" y="224" type="line"/>
      <point x="358" y="267"/>
      <point x="453" y="343"/>
      <point x="453" y="445" type="curve" smooth="yes"/>
      <point x="453" y="559"/>
      <point x="333" y="694"/>
      <point x="206" y="694" type="curve" smooth="yes"/>
    </contour>
  </outline>
</glyph>
<glyph name="dvB" format="1">
  <advance width="488"/>
  <outline>
    <contour>
      <point x="284" y="498" type="line"/>
      <point x="124" y="530"/>
      <point x="16" y="427"/>
      <point x="16" y="316" type="curve" smooth="yes"/>
      <point x="16" y="169"/>
      <point x="204" y="58"/>
      <point x="348" y="58" type="curve" smooth="yes"/>
      <point x="530" y="58"/>
      <point x="613" y="237"/>
      <point x="531" y="379" type="curve"/>
      <point x="408" y="343" type="line"/>
      <point x="423" y="245"/>
      <point x="339" y="189"/>
      <point x="268" y="189" type="curve" smooth="yes"/>
      <point x="251" y="189"/>
      <point x="234" y="192"/>
      <point x="220" y="199" type="curve"/>
      <point x="176" y="262"/>
      <point x="218" y="358"/>
      <point x="318" y="358" type="curve" smooth="yes"/>
      <point x="363" y="358"/>
      <point x="412" y="338"/>
      <point x="463" y="301" type="curve"/>
      <point x="531" y="379" type="line"/>
    </contour>
    <contour>
      <point x="643" y="538" type="line"/>
      <point x="668" y="587" type="line"/>
      <point x="603" y="670" type="line"/>
      <point x="-40" y="670" type="line"/>
      <point x="-65" y="621" type="line"/>
      <point x="0" y="538" type="line"/>
    </contour>
    <contour>
      <point x="360" y="146" type="line"/>
      <point x="423" y="177" type="line"/>
      <point x="260" y="413" type="line"/>
      <point x="193" y="387" type="line"/>
    </contour>
  </outline>
</glyph>
<glyph name="dvDDa" format="1">
  <advance width="614"/>
  <outline>
    <contour>
      <point x="481" y="40" type="line"/>
      <point x="435" y="-18"/>
      <point x="319" y="-57"/>
      <point x="239" y="-15" type="curve"/>
      <point x="231" y="-2"/>
      <point x="226" y="13"/>
      <point x="226" y="28" type="curve" smooth="yes"/>
      <point x="226" y="68"/>
      <point x="260" y="108"/>
      <point x="353" y="108" type="curve" smooth="yes"/>
      <point x="536" y="108" type="line"/>
      <point x="561" y="157" type="line"/>
      <point x="482" y="281" type="line"/>
      <point x="293" y="281" type="line" smooth="yes"/>
      <point x="103" y="281"/>
      <point x="56" y="162"/>
      <point x="56" y="87" type="curve" smooth="yes"/>
      <point x="56" y="-63"/>
      <point x="244" y="-190"/>
      <point x="392" y="-190" type="curve" smooth="yes"/>
      <point x="439" y="-190"/>
      <point x="490" y="-177"/>
      <point x="538" y="-153" type="curve"/>
    </contour>
    <contour>
      <point x="664" y="538" type="line"/>
      <point x="689" y="587" type="line"/>
      <point x="614" y="670" type="line"/>
      <point x="-40" y="670" type="line"/>
      <point x="-65" y="621" type="line"/>
      <point x="0" y="538" type="line"/>
    </contour>
    <contour>
      <point x="403" y="51" type="line"/>
      <point x="434" y="-176" type="line"/>
      <point x="503" y="-170" type="line"/>
      <point x="546" y="-155"/>
      <point x="601" y="-117"/>
      <point x="628" y="-67" type="curve"/>
      <point x="510" y="88" type="line"/>
    </contour>
    <contour>
      <point x="419" y="-76" type="line"/>
      <point x="483" y="-383" type="line"/>
      <point x="658" y="-312" type="line"/>
      <point x="491" y="-24" type="line"/>
    </contour>
    <contour>
      <point x="364" y="411" type="line"/>
      <point x="530" y="339" type="line"/>
      <point x="530" y="486" type="line"/>
      <point x="410" y="568" type="line"/>
      <point x="364" y="599" type="line"/>
    </contour>
    <contour>
      <point x="237" y="228" type="line"/>
      <point x="200" y="248"/>
      <point x="181" y="274"/>
      <point x="181" y="295" type="curve" smooth="yes"/>
      <point x="181" y="317"/>
      <point x="200" y="339"/>
      <point x="237" y="339" type="curve"/>
      <point x="530" y="339" type="line"/>
      <point x="433" y="493" type="line"/>
      <point x="194" y="493" type="line" smooth="yes"/>
      <point x="83" y="493"/>
      <point x="28" y="436"/>
      <point x="28" y="370" type="curve" smooth="yes"/>
      <point x="28" y="303"/>
      <point x="84" y="226"/>
      <point x="192" y="180" type="curve"/>
    </contour>
  </outline>
</glyph>
<glyph name="dvDdDda" format="1">
  <advance width="640"/>
  <outline>
    <contour>
      <point x="14" y="184" type="line"/>
      <point x="124" y="22"/>
      <point x="258" y="-54"/>
      <point x="380" y="-54" type="curve" smooth="yes"/>
      <point x="514" y="-54"/>
      <point x="605" y="37"/>
      <point x="605" y="133" type="curve" smooth="yes"/>
      <point x="605" y="205"/>
      <point x="554" y="301"/>
      <point x="434" y="334" type="curve"/>
      <point x="249" y="292" type="line"/>
      <point x="236" y="301"/>
      <point x="227" y="315"/>
      <point x="227" y="327" type="curve" smooth="yes"/>
      <point x="227" y="344"/>
      <point x="242" y="357"/>
      <point x="283" y="357" type="curve" smooth="yes"/>
      <point x="553" y="357" type="line"/>
      <point x="454" y="502" type="line"/>
      <point x="265" y="502" type="line" smooth="yes"/>
      <point x="134" y="502"/>
      <point x="72" y="441"/>
      <point x="72" y="369" type="curve" smooth="yes"/>
      <point x="72" y="276"/>
      <point x="176" y="186"/>
      <point x="320" y="133" type="curve"/>
      <point x="483" y="183" type="line"/>
      <point x="463" y="125"/>
      <point x="387" y="96"/>
      <point x="325" y="96" type="curve" smooth="yes"/>
      <point x="232" y="96"/>
      <point x="150" y="161"/>
      <point x="92" y="250" type="curve"/>
    </contour>
    <contour>
      <point x="393" y="375" type="line"/>
      <point x="553" y="357" type="line"/>
      <point x="553" y="486" type="line"/>
      <point x="433" y="568" type="line"/>
      <point x="393" y="599" type="line"/>
    </contour>
    <contour>
      <point x="680" y="538" type="line"/>
      <point x="705" y="587" type="line"/>
      <point x="640" y="670" type="line"/>
      <point x="-40" y="670" type="line"/>
      <point x="-65" y="621" type="line"/>
      <point x="0" y="538" type="line"/>
    </contour>
    <contour>
      <point x="47" y="-217" type="line"/>
      <point x="148" y="-367"/>
      <point x="279" y="-441"/>
      <point x="401" y="-441" type="curve" smooth="yes"/>
      <point x="533" y="-441"/>
      <point x="610" y="-353"/>
      <point x="610" y="-262" type="curve" smooth="yes"/>
      <point x="610" y="-191"/>
      <point x="562" y="-101"/>
      <point x="448" y="-69" type="curve"/>
      <point x="272" y="-109" type="line"/>
      <point x="259" y="-100"/>
      <point x="252" y="-88"/>
      <point x="252" y="-75" type="curve" smooth="yes"/>
      <point x="252" y="-52"/>
      <point x="275" y="-29"/>
      <point x="321" y="-27" type="curve"/>
      <point x="287" y="97" type="line"/>
      <point x="162" y="97"/>
      <point x="105" y="29"/>
      <point x="105" y="-40" type="curve" smooth="yes"/>
      <point x="105" y="-129"/>
      <point x="202" y="-215"/>
      <point x="340" y="-265" type="curve"/>
      <point x="491" y="-219" type="line"/>
      <point x="477" y="-273"/>
      <point x="408" y="-295"/>
      <point x="352" y="-295" type="curve" smooth="yes"/>
      <point x="261" y="-295"/>
      <point x="179" y="-235"/>
      <point x="122" y="-150" type="curve"/>
    </contour>
  </outline>
</glyph>
<glyph name="dvDdDdha" format="1">
  <advance width="640"/>
  <outline>
    <contour>
      <point x="14" y="184" type="line"/>
      <point x="124" y="22"/>
      <point x="258" y="-54"/>
      <point x="380" y="-54" type="curve" smooth="yes"/>
      <point x="514" y="-54"/>
      <point x="605" y="37"/>
      <point x="605" y="133" type="curve" smooth="yes"/>
      <point x="605" y="205"/>
      <point x="554" y="301"/>
      <point x="434" y="334" type="curve"/>
      <point x="249" y="292" type="line"/>
      <point x="236" y="301"/>
      <point x="227" y="315"/>
      <point x="227" y="327" type="curve" smooth="yes"/>
      <point x="227" y="344"/>
      <point x="242" y="357"/>
      <point x="283" y="357" type="curve" smooth="yes"/>
      <point x="553" y="357" type="line"/>
      <point x="454" y="502" type="line"/>
      <point x="265" y="502" type="line" smooth="yes"/>
      <point x="134" y="502"/>
      <point x="72" y="441"/>
      <point x="72" y="369" type="curve" smooth="yes"/>
      <point x="72" y="276"/>
      <point x="176" y="186"/>
      <point x="320" y="133" type="curve"/>
      <point x="483" y="183" type="line"/>
      <point x="463" y="125"/>
      <point x="387" y="96"/>
      <point x="325" y="96" type="curve" smooth="yes"/>
      <point x="232" y="96"/>
      <point x="150" y="161"/>
      <point x="92" y="250" type="curve"/>
    </contour>
    <contour>
      <point x="393" y="375" type="line"/>
      <point x="553" y="357" type="line"/>
      <point x="553" y="486" type="line"/>
      <point x="433" y="568" type="line"/>
      <point x="393" y="599" type="line"/>
    </contour>
    <contour>
      <point x="680" y="538" type="line"/>
      <point x="705" y="587" type="line"/>
      <point x="640" y="670" type="line"/>
      <point x="-40" y="670" type="line"/>
      <point x="-65" y="621" type="line"/>
      <point x="0" y="538" type="line"/>
    </contour>
    <contour>
      <point x="467" y="-415" type="line"/>
      <point x="444" y="-387"/>
      <point x="432" y="-361"/>
      <point x="432" y="-341" type="curve" smooth="yes"/>
      <point x="432" y="-318"/>
      <point x="447" y="-307"/>
      <point x="461" y="-307" type="curve" smooth="yes"/>
      <point x="475" y="-307"/>
      <point x="487" y="-319"/>
      <point x="487" y="-334" type="curve" smooth="yes"/>
      <point x="487" y="-369"/>
      <point x="417" y="-394"/>
      <point x="345" y="-394" type="curve" smooth="yes"/>
      <point x="320" y="-394"/>
      <point x="294" y="-391"/>
      <point x="271" y="-384" type="curve"/>
      <point x="255" y="-365"/>
      <point x="247" y="-341"/>
      <point x="247" y="-317" type="curve" smooth="yes"/>
      <point x="247" y="-264"/>
      <point x="286" y="-212"/>
      <point x="367" y="-212" type="curve" smooth="yes"/>
      <point x="530" y="-212" type="line"/>
      <point x="450" y="-76" type="line"/>
      <point x="326" y="-76" type="line" smooth="yes"/>
      <point x="165" y="-76"/>
      <point x="96" y="-169"/>
      <point x="96" y="-260" type="curve" smooth="yes"/>
      <point x="96" y="-409"/>
      <point x="281" y="-509"/>
      <point x="420" y="-509" type="curve" smooth="yes"/>
      <point x="529" y="-509"/>
      <point x="592" y="-447"/>
      <point x="592" y="-375" type="curve" smooth="yes"/>
      <point x="592" y="-298"/>
      <point x="520" y="-219"/>
      <point x="417" y="-219" type="curve" smooth="yes"/>
      <point x="334" y="-219"/>
      <point x="301" y="-271"/>
      <point x="301" y="-318" type="curve" smooth="yes"/>
      <point x="301" y="-332"/>
      <point x="304" y="-346"/>
      <point x="310" y="-358" type="curve"/>
      <point x="434" y="-435" type="line"/>
    </contour>
    <contour>
      <point x="373" y="-194" type="line"/>
      <point x="530" y="-212" type="line"/>
      <point x="530" y="-75" type="line"/>
      <point x="431" y="-7" type="line"/>
      <point x="373" y="18" type="line"/>
    </contour>
  </outline>
</glyph>
<glyph name="dvHMatraVocalicR" format="1">
  <advance width="650"/>
  <outline>
    <contour>
      <point x="382" y="411" type="line"/>
      <point x="548" y="339" type="line"/>
      <point x="548" y="486" type="line"/>
      <point x="428" y="568" type="line"/>
      <point x="382" y="599" type="line"/>
    </contour>
    <contour>
      <point x="685" y="538" type="line"/>
      <point x="710" y="587" type="line"/>
      <point x="645" y="670" type="line"/>
      <point x="-40" y="670" type="line"/>
      <point x="-65" y="621" type="line"/>
      <point x="0" y="538" type="line"/>
    </contour>
    <contour>
      <point x="255" y="233" type="line"/>
      <point x="218" y="253"/>
      <point x="199" y="279"/>
      <point x="199" y="300" type="curve" smooth="yes"/>
      <point x="199" y="322"/>
      <point x="218" y="339"/>
      <point x="255" y="339" type="curve"/>
      <point x="548" y="339" type="line"/>
      <point x="451" y="493" type="line"/>
      <point x="212" y="493" type="line" smooth="yes"/>
      <point x="101" y="493"/>
      <point x="46" y="434"/>
      <point x="46" y="370" type="curve" smooth="yes"/>
      <point x="46" y="306"/>
      <point x="102" y="231"/>
      <point x="210" y="185" type="curve"/>
    </contour>
    <contour>
      <point x="560" y="42" type="line"/>
      <point x="501" y="5"/>
      <point x="412" y="-23"/>
      <point x="387" y="-12" type="curve"/>
      <point x="403" y="22"/>
      <point x="475" y="42"/>
      <point x="558" y="62" type="curve"/>
      <point x="598" y="187" type="line"/>
      <point x="561" y="245"/>
      <point x="470" y="305"/>
      <point x="343" y="305" type="curve" smooth="yes"/>
      <point x="204" y="305"/>
      <point x="63" y="233"/>
      <point x="63" y="86" type="curve" smooth="yes"/>
      <point x="63" y="-98"/>
      <point x="284" y="-261"/>
      <point x="519" y="-281" type="curve"/>
      <point x="554" y="-163" type="line"/>
      <point x="369" y="-158"/>
      <point x="235" y="-80"/>
      <point x="235" y="37" type="curve" smooth="yes"/>
      <point x="235" y="140"/>
      <point x="338" y="182"/>
      <point x="420" y="182" type="curve" smooth="yes"/>
      <point x="442" y="182"/>
      <point x="474" y="179"/>
      <point x="491" y="174" type="curve"/>
      <point x="489" y="165" type="line"/>
      <point x="375" y="168"/>
      <point x="283" y="118"/>
      <point x="283" y="36" type="curve" smooth="yes"/>
      <point x="283" y="-47"/>
      <point x="376" y="-136"/>
      <point x="484" y="-136" type="curve" smooth="yes"/>
      <point x="524" y="-136"/>
      <point x="569" y="-124"/>
      <point x="613" y="-89" type="curve"/>
    </contour>
  </outline>
</glyph>
<glyph name="dvHalant.small" format="1">
  <advance width="0"/>
  <outline>
    <contour>
      <point x="105" y="-253" type="line"/>
      <point x="-29" y="-127" type="line" smooth="yes"/>
      <point x="-77" y="-82"/>
      <point x="-123" y="-61"/>
      <point x="-167" y="-61" type="curve" smooth="yes"/>
      <point x="-221" y="-61"/>
      <point x="-272" y="-93"/>
      <point x="-317" y="-143" type="curve"/>
      <point x="-220" y="-258" type="line"/>
      <point x="-117" y="-182" type="line"/>
      <point x="37" y="-324" type="line"/>
    </contour>
  </outline>
</glyph>
<glyph name="dvJNya" format="1">
  <advance width="790"/>
  <outline>
    <contour>
      <point x="568" y="495" type="line"/>
      <point x="199" y="495" type="line"/>
      <point x="88" y="495"/>
      <point x="31" y="434"/>
      <point x="31" y="355" type="curve"/>
      <point x="31" y="293"/>
      <point x="101" y="180"/>
      <point x="183" y="121" type="curve"/>
      <point x="293" y="106" type="line" smooth="yes"/>
      <point x="337" y="100"/>
      <point x="354" y="87"/>
      <point x="354" y="73" type="curve" smooth="yes"/>
      <point x="354" y="39"/>
      <point x="245" y="1"/>
      <point x="126" y="44" type="curve"/>
      <point x="153" y="-88" type="line"/>
      <point x="311" y="-170"/>
      <point x="501" y="-128"/>
      <point x="501" y="27" type="curve" smooth="yes"/>
      <point x="501" y="111"/>
      <point x="445" y="203"/>
      <point x="330" y="292" type="curve"/>
      <point x="160" y="310" type="line"/>
      <point x="170" y="334"/>
      <point x="199" y="341"/>
      <point x="241" y="341" type="curve"/>
      <point x="561" y="341" type="line"/>
    </contour>
    <contour>
      <point x="534" y="23" type="line"/>
      <point x="666" y="-46" type="line"/>
      <point x="720" y="-19" type="line"/>
      <point x="720" y="486" type="line"/>
      <point x="600" y="568" type="line"/>
      <point x="534" y="599" type="line"/>
    </contour>
    <contour>
      <point x="830" y="538" type="line"/>
      <point x="855" y="587" type="line"/>
      <point x="790" y="670" type="line"/>
      <point x="-40" y="670" type="line"/>
      <point x="-65" y="621" type="line"/>
      <point x="0" y="538" type="line"/>
    </contour>
    <contour>
      <point x="470" y="-181" type="line"/>
      <point x="200" y="-64" type="line"/>
      <point x="127" y="-89" type="line"/>
      <point x="365" y="-351" type="line"/>
      <point x="479" y="-236" type="line"/>
    </contour>
    <contour>
      <point x="244" y="-85" type="line"/>
      <point x="238" y="-16" type="line"/>
      <point x="131" y="109" type="line"/>
      <point x="78" y="98" type="line"/>
      <point x="28" y="-69" type="line"/>
      <point x="75" y="-109"/>
      <point x="159" y="-137"/>
      <point x="215" y="-127" type="curve"/>
    </contour>
  </outline>
</glyph>
<glyph name="dvKRa" format="1">
  <advance width="845"/>
  <outline>
    <contour>
      <point x="885" y="538" type="line"/>
      <point x="910" y="587" type="line"/>
      <point x="845" y="670" type="line"/>
      <point x="-40" y="670" type="line"/>
      <point x="-65" y="621" type="line"/>
      <point x="0" y="538" type="line"/>
    </contour>
    <contour>
      <point x="332" y="23" type="line"/>
      <point x="464" y="-46" type="line"/>
      <point x="518" y="-19" type="line"/>
      <point x="518" y="486" type="line"/>
      <point x="398" y="568" type="line"/>
      <point x="332" y="599" type="line"/>
    </contour>
    <contour>
      <point x="456" y="123" type="line"/>
      <point x="505" y="201"/>
      <point x="593" y="294"/>
      <point x="639" y="294" type="curve" smooth="yes"/>
      <point x="655" y="294"/>
      <point x="662" y="283"/>
      <point x="662" y="272" type="curve" smooth="yes"/>
      <point x="662" y="242"/>
      <point x="608" y="180"/>
      <point x="531" y="130" type="curve"/>
      <point x="650" y="-7" type="line"/>
      <point x="752" y="54"/>
      <point x="822" y="137"/>
      <point x="822" y="231" type="curve" smooth="yes"/>
      <point x="822" y="341"/>
      <point x="726" y="466"/>
      <point x="610" y="466" type="curve" smooth="yes"/>
      <point x="503" y="466"/>
      <point x="431" y="361"/>
      <point x="378" y="262" type="curve"/>
    </contour>
    <contour>
      <point x="-12" y="42" type="line"/>
      <point x="121" y="-67" type="line"/>
      <point x="445" y="160" type="line"/>
      <point x="370" y="288" type="line" smooth="yes"/>
    </contour>
    <contour>
      <point x="249" y="480" type="line"/>
      <point x="96" y="511"/>
      <point x="19" y="413"/>
      <point x="19" y="314" type="curve" smooth="yes"/>
      <point x="19" y="169"/>
      <point x="187" y="82"/>
      <point x="299" y="82" type="curve" smooth="yes"/>
      <point x="307" y="82"/>
      <point x="314" y="82"/>
      <point x="321" y="83" type="curve"/>
      <point x="451" y="173" type="line"/>
      <point x="357" y="322" type="line"/>
      <point x="324" y="251"/>
      <point x="271" y="224"/>
      <point x="226" y="215" type="curve"/>
      <point x="192" y="264"/>
      <point x="212" y="347"/>
      <point x="293" y="347" type="curve" smooth="yes"/>
      <point x="331" y="347"/>
      <point x="371" y="329"/>
      <point x="420" y="294" type="curve"/>
      <point x="444" y="375" type="line"/>
    </contour>
  </outline>
</glyph>
<glyph name="dvKhRa" format="1">
  <advance width="920"/>
  <outline>
    <contour>
      <point x="315" y="-95" type="line"/>
      <point x="422" y="-205" type="line"/>
      <point x="775" y="31" type="line"/>
      <point x="706" y="75" type="line" smooth="yes"/>
    </contour>
    <component base="dvKha"/>
  </outline>
</glyph>
<glyph name="dvL" format="1">
  <advance width="560"/>
  <outline>
    <contour>
      <point x="466" y="151" type="line"/>
      <point x="453" y="228"/>
      <point x="481" y="333"/>
      <point x="556" y="333" type="curve" smooth="yes"/>
      <point x="584" y="333"/>
      <point x="610" y="319"/>
      <point x="639" y="285" type="curve"/>
      <point x="684" y="397" type="line"/>
      <point x="625" y="451"/>
      <point x="573" y="476"/>
      <point x="513" y="476" type="curve" smooth="yes"/>
      <point x="379" y="476"/>
      <point x="267" y="350"/>
      <point x="285" y="204" type="curve"/>
      <point x="423" y="121" type="line"/>
    </contour>
    <contour>
      <point x="418" y="338" type="line"/>
      <point x="254" y="472" type="line"/>
      <point x="236" y="479"/>
      <point x="215" y="482"/>
      <point x="195" y="482" type="curve" smooth="yes"/>
      <point x="109" y="482"/>
      <point x="12" y="423"/>
      <point x="12" y="300" type="curve" smooth="yes"/>
      <point x="12" y="178"/>
      <point x="106" y="58"/>
      <point x="321" y="-55" type="curve"/>
      <point x="392" y="40" type="line"/>
      <point x="272" y="111"/>
      <point x="207" y="161"/>
      <point x="207" y="232" type="curve" smooth="yes"/>
      <point x="207" y="287"/>
      <point x="245" y="318"/>
      <point x="288" y="318" type="curve" smooth="yes"/>
      <point x="311" y="318"/>
      <point x="337" y="309"/>
      <point x="358" y="292" type="curve"/>
      <point x="384" y="261" type="line"/>
    </contour>
    <contour>
      <point x="650" y="538" type="line"/>
      <point x="675" y="587" type="line"/>
      <point x="610" y="670" type="line"/>
      <point x="-40" y="670" type="line"/>
      <point x="-65" y="621" type="line"/>
      <point x="0" y="538" type="line"/>
    </contour>
  </outline>
</glyph>
<glyph name="dvMRa" format="1">
  <advance width="717"/>
  <outline>
    <contour>
      <point x="529" y="224" type="line" smooth="yes"/>
      <point x="191" y="-11" type="line"/>
      <point x="317" y="-103" type="line"/>
      <point x="597" y="98" type="line"/>
    </contour>
    <contour>
      <point x="13" y="303" type="line"/>
      <point x="38" y="217"/>
      <point x="153" y="117"/>
      <point x="239" y="92" type="curve"/>
      <point x="304" y="132" type="line"/>
      <point x="304" y="319" type="line"/>
      <point x="237" y="361" type="line"/>
      <point x="49" y="361" type="line"/>
    </contour>
    <contour>
      <point x="461" y="23" type="line"/>
      <point x="593" y="-46" type="line"/>
      <point x="647" y="-19" type="line"/>
      <point x="647" y="486" type="line"/>
      <point x="527" y="568" type="line"/>
      <point x="461" y="599" type="line"/>
    </contour>
    <contour>
      <point x="757" y="538" type="line"/>
      <point x="782" y="587" type="line"/>
      <point x="717" y="670" type="line"/>
      <point x="-40" y="670" type="line"/>
      <point x="-65" y="621" type="line"/>
      <point x="0" y="538" type="line"/>
    </contour>
    <contour>
      <point x="131" y="227" type="line"/>
      <point x="304" y="185" type="line"/>
      <point x="304" y="486" type="line"/>
      <point x="184" y="568" type="line"/>
      <point x="115" y="599" type="line"/>
    </contour>
    <contour>
      <point x="519" y="361" type="line"/>
      <point x="191" y="361" type="line"/>
      <point x="222" y="205" type="line"/>
      <point x="541" y="205" type="line"/>
    </contour>
  </outline>
</glyph>
<glyph name="dvMatraAiAnusvara" format="1">
  <advance width="0"/>
  <outline>
    <contour>
      <point x="8" y="753"/>
      <point x="46" y="800"/>
      <point x="61" y="840" type="curve"/>
      <point x="39" y="868"/>
      <point x="-7" y="911"/>
      <point x="-47" y="926" type="curve"/>
      <point x="-81" y="906"/>
      <point x="-116" y="860"/>
      <point x="-138" y="816" type="curve"/>
      <point x="-114" y="783"/>
      <point x="-61" y="743"/>
      <point x="-25" y="730" type="curve"/>
    </contour>
    <component base="dvMatraAi"/>
  </outline>
</glyph>
<glyph name="dvMatraAiReph" format="1">
  <advance width="0"/>
  <outline>
    <contour>
      <point x="118" y="931" type="line"/>
      <point x="76" y="993"/>
      <point x="23" y="1017"/>
      <point x="-30" y="1017" type="curve" smooth="yes"/>
      <point x="-121" y="1017"/>
      <point x="-213" y="945"/>
      <point x="-213" y="809" type="curve" smooth="yes"/>
      <point x="-213" y="750"/>
      <point x="-196" y="708"/>
      <point x="-166" y="621" type="curve"/>
      <point x="-192" y="573" type="line"/>
      <point x="-62" y="609" type="line"/>
      <point x="-99" y="666"/>
      <point x="-121" y="696"/>
      <point x="-121" y="750" type="curve" smooth="yes"/>
      <point x="-121" y="836"/>
      <point x="-64" y="876"/>
      <point x="-2" y="876" type="curve" smooth="yes"/>
      <point x="29" y="876"/>
      <point x="62" y="866"/>
      <point x="93" y="845" type="curve"/>
    </contour>
    <component base="dvMatraAi"/>
  </outline>
</glyph>
<glyph name="dvMatraERephAnusvara" format="1">
  <advance width="0"/>
  <outline>
    <contour>
      <point x="-6" y="706"/>
      <point x="25" y="745"/>
      <point x="38" y="778" type="curve"/>
      <point x="20" y="801"/>
      <point x="-19" y="836"/>
      <point x="-52" y="849" type="curve"/>
      <point x="-82" y="833"/>
      <point x="-110" y="794"/>
      <point x="-127" y="758" type="curve"/>
      <point x="-107" y="731"/>
      <point x="-63" y="698"/>
      <point x="-34" y="687" type="curve"/>
    </contour>
    <component base="dvMatraEReph"/>
  </outline>
</glyph>
<glyph name="dvMatraIiRephAnusvara" format="1">
  <advance width="316"/>
  <outline>
    <contour>
      <point x="301" y="709"/>
      <point x="332" y="748"/>
      <point x="345" y="781" type="curve"/>
      <point x="327" y="804"/>
      <point x="288" y="839"/>
      <point x="255" y="852" type="curve"/>
      <point x="225" y="836"/>
      <point x="197" y="797"/>
      <point x="180" y="761" type="curve"/>
      <point x="200" y="734"/>
      <point x="244" y="701"/>
      <point x="273" y="690" type="curve"/>
    </contour>
    <component base="dvMatraIiReph"/>
  </outline>
</glyph>
<glyph name="dvMatraU.small" format="1">
  <advance width="0"/>
  <outline>
    <contour>
      <point x="-253" y="-210" type="line"/>
      <point x="-160" y="-122" type="line"/>
      <point x="-150" y="-137"/>
      <point x="-144" y="-153"/>
      <point x="-144" y="-169" type="curve" smooth="yes"/>
      <point x="-144" y="-209"/>
      <point x="-179" y="-245"/>
      <point x="-230" y="-245" type="curve" smooth="yes"/>
      <point x="-294" y="-245"/>
      <point x="-358" y="-187"/>
      <point x="-455" y="-82" type="curve"/>
      <point x="-525" y="-155" type="line"/>
      <point x="-419" y="-287"/>
      <point x="-303" y="-372"/>
      <point x="-193" y="-372" type="curve" smooth="yes"/>
      <point x="-96" y="-372"/>
      <point x="-22" y="-303"/>
      <point x="-22" y="-214" type="curve" smooth="yes"/>
      <point x="-22" y="-117"/>
      <point x="-110" y="-22"/>
      <point x="-206" y="-22" type="curve" smooth="yes"/>
      <point x="-265" y="-22"/>
      <point x="-321" y="-58"/>
      <point x="-353" y="-113" type="curve"/>
    </contour>
  </outline>
</glyph>
<glyph name="dvMatraUu.small" format="1">
  <advance width="0"/>
  <outline>
    <contour>
      <point x="-140" y="-200" type="line"/>
      <point x="-245" y="-265" type="line"/>
      <point x="-251" y="-259"/>
      <point x="-253" y="-250"/>
      <point x="-253" y="-241" type="curve" smooth="yes"/>
      <point x="-253" y="-205"/>
      <point x="-219" y="-161"/>
      <point x="-168" y="-161" type="curve" smooth="yes"/>
      <point x="-104" y="-161"/>
      <point x="-55" y="-230"/>
      <point x="45" y="-372" type="curve"/>
      <point x="125" y="-307" type="line"/>
      <point x="35" y="-173"/>
      <point x="-58" y="-23"/>
      <point x="-200" y="-23" type="curve" smooth="yes"/>
      <point x="-297" y="-23"/>
      <point x="-376" y="-93"/>
      <point x="-376" y="-182" type="curve" smooth="yes"/>
      <point x="-376" y="-282"/>
      <point x="-275" y="-364"/>
      <point x="-181" y="-364" type="curve" smooth="yes"/>
      <point x="-135" y="-364"/>
      <point x="-94" y="-345"/>
      <point x="-54" y="-301" type="curve"/>
    </contour>
  </outline>
</glyph>
<glyph name="dvN" format="1">
  <advance width="341"/>
  <outline>
    <contour>
      <point x="460" y="538" type="line"/>
      <point x="485" y="587" type="line"/>
      <point x="420" y="670" type="line"/>
      <point x="-40" y="670" type="line"/>
      <point x="-65" y="621" type="line"/>
      <point x="0" y="538" type="line"/>
    </contour>
    <contour>
      <point x="7" y="376" type="line"/>
      <point x="20" y="290"/>
      <point x="101" y="174"/>
      <point x="190" y="130" type="curve"/>
      <point x="262" y="166" type="line"/>
      <point x="262" y="392" type="line"/>
      <point x="195" y="434" type="line"/>
      <point x="43" y="434" type="line"/>
    </contour>
    <contour>
      <point x="501" y="303" type="line"/>
      <point x="437" y="434" type="line"/>
      <point x="139" y="434" type="line"/>
      <point x="170" y="258" type="line"/>
      <point x="474" y="258" type="line"/>
    </contour>
  </outline>
</glyph>
<glyph name="dvP" format="1">
  <advance width="358"/>
  <outline>
    <contour>
      <point x="473" y="538" type="line"/>
      <point x="498" y="587" type="line"/>
      <point x="433" y="670" type="line"/>
      <point x="-40" y="670" type="line"/>
      <point x="-65" y="621" type="line"/>
      <point x="0" y="538" type="line"/>
    </contour>
    <contour>
      <point x="412" y="369" type="line"/>
      <point x="388" y="302"/>
      <point x="323" y="256"/>
      <point x="265" y="256" type="curve" smooth="yes"/>
      <point x="253" y="256"/>
      <point x="240" y="258"/>
      <point x="227" y="263" type="curve"/>
      <point x="227" y="486" type="line"/>
      <point x="107" y="568" type="line"/>
      <point x="30" y="599" type="line"/>
      <point x="30" y="378" type="line" smooth="yes"/>
      <point x="30" y="250"/>
      <point x="202" y="103"/>
      <point x="344" y="103" type="curve" smooth="yes"/>
      <point x="421" y="103"/>
      <point x="482" y="146"/>
      <point x="526" y="217" type="curve"/>
    </contour>
  </outline>
</glyph>
<glyph name="dvRMatraU" format="1">
  <advance width="785"/>
  <outline>
    <contour>
      <point x="825" y="538" type="line"/>
      <point x="850" y="587" type="line"/>
      <point x="785" y="670" type="line"/>
      <point x="450" y="670" type="line"/>
      <point x="425" y="621" type="line"/>
      <point x="490" y="538" type="line"/>
    </contour>
    <contour>
      <point x="604" y="30" type="line"/>
      <point x="698" y="87"/>
      <point x="766" y="152"/>
      <point x="766" y="253" type="curve" smooth="yes"/>
      <point x="766" y="379"/>
      <point x="663" y="488"/>
      <point x="535" y="488" type="curve" smooth="yes"/>
      <point x="424" y="488"/>
      <point x="305" y="406"/>
      <point x="173" y="270" type="curve"/>
      <point x="265" y="152" type="line"/>
      <point x="439" y="295"/>
      <point x="522" y="334"/>
      <point x="569" y="334" type="curve" smooth="yes"/>
      <point x="594" y="334"/>
      <point x="605" y="323"/>
      <point x="605" y="302" type="curve" smooth="yes"/>
      <point x="605" y="266"/>
      <point x="571" y="226"/>
      <point x="480" y="165" type="curve"/>
    </contour>
    <component base="dvRa"/>
  </outline>
</glyph>
<glyph name="dvRakar" format="1">
  <advance width="600"/>
  <outline>
    <contour>
      <point x="-48" y="-30" type="line"/>
      <point x="-211" y="-209" type="line"/>
      <point x="-89" y="-308" type="line"/>
      <point x="64" y="-125" type="line"/>
      <point x="-48" y="-113" type="line"/>
      <point x="140" y="-310" type="line"/>
      <point x="229" y="-228" type="line"/>
      <point x="43" y="-30" type="line"/>
    </contour>
  </outline>
</glyph>
<glyph name="dvRakar.small" format="1">
  <advance width="600"/>
  <outline>
    <contour>
      <point x="-40" y="-30" type="line"/>
      <point x="-214" y="-181" type="line"/>
      <point x="-101" y="-278" type="line"/>
      <point x="64" y="-125" type="line"/>
      <point x="-48" y="-113" type="line"/>
      <point x="150" y="-280" type="line"/>
      <point x="229" y="-198" type="line"/>
      <point x="37" y="-30" type="line"/>
    </contour>
  </outline>
</glyph>
<glyph name="dvRephAnusvara" format="1">
  <advance width="0"/>
  <outline>
    <contour>
      <point x="-67" y="717"/>
      <point x="-36" y="756"/>
      <point x="-23" y="789" type="curve"/>
      <point x="-41" y="812"/>
      <point x="-80" y="847"/>
      <point x="-113" y="860" type="curve"/>
      <point x="-143" y="844"/>
      <point x="-171" y="805"/>
      <point x="-188" y="769" type="curve"/>
      <point x="-168" y="742"/>
      <point x="-124" y="709"/>
      <point x="-95" y="698" type="curve"/>
    </contour>
    <component base="dvReph" yOffset="22"/>
  </outline>
</glyph>
<glyph name="dvS" format="1">
  <advance width="484"/>
  <outline>
    <contour>
      <point x="629" y="538" type="line"/>
      <point x="654" y="587" type="line"/>
      <point x="589" y="670" type="line"/>
      <point x="453" y="670" type="line"/>
      <point x="428" y="621" type="line"/>
      <point x="493" y="538" type="line"/>
    </contour>
    <contour>
      <point x="612" y="210" type="line"/>
      <point x="602" y="359" type="line"/>
      <point x="238" y="359" type="line"/>
      <point x="239" y="210" type="line"/>
    </contour>
    <component base="dvRa" xOffset="-10"/>
  </outline>
</glyph>
<glyph name="dvShCa" format="1">
  <advance width="792"/>
  <outline>
    <contour>
      <point x="832" y="538" type="line"/>
      <point x="857" y="587" type="line"/>
      <point x="792" y="670" type="line"/>
      <point x="496" y="670" type="line"/>
      <point x="471" y="621" type="line"/>
      <point x="536" y="538" type="line"/>
    </contour>
    <contour>
      <point x="536" y="-117" type="line"/>
      <point x="668" y="-186" type="line"/>
      <point x="722" y="-159" type="line"/>
      <point x="722" y="486" type="line"/>
      <point x="602" y="568" type="line"/>
      <point x="536" y="599" type="line"/>
    </contour>
    <contour>
      <point x="150" y="693"/>
      <point x="77" y="619"/>
      <point x="77" y="534" type="curve" smooth="yes"/>
      <point x="77" y="371"/>
      <point x="343" y="158"/>
      <point x="546" y="190" type="curve"/>
      <point x="546" y="372" type="line"/>
      <point x="415" y="319"/>
      <point x="240" y="368"/>
      <point x="240" y="479" type="curve" smooth="yes"/>
      <point x="240" y="537"/>
      <point x="288" y="580"/>
      <point x="331" y="549" type="curve"/>
      <point x="339" y="508"/>
      <point x="302" y="459"/>
      <point x="239" y="418" type="curve"/>
      <point x="215" y="400" type="line"/>
      <point x="-12" y="266" type="line"/>
      <point x="102" y="135" type="line"/>
      <point x="315" y="266" type="line"/>
      <point x="334" y="278" type="line"/>
      <point x="398" y="326"/>
      <point x="451" y="394"/>
      <point x="451" y="477" type="curve" smooth="yes"/>
      <point x="451" y="592"/>
      <point x="352" y="693"/>
      <point x="243" y="693" type="curve" smooth="yes"/>
    </contour>
    <contour>
      <point x="458" y="116" type="line"/>
      <point x="455" y="144" type="line"/>
      <point x="310" y="204" type="line"/>
      <point x="64" y="60" type="line"/>
      <point x="172" y="-49" type="line"/>
    </contour>
    <contour>
      <point x="556" y="167" type="line"/>
      <point x="525" y="80"/>
      <point x="431" y="14"/>
      <point x="378" y="6" type="curve"/>
      <point x="369" y="42"/>
      <point x="383" y="102"/>
      <point x="405" y="146" type="curve"/>
      <point x="154" y="79" type="line"/>
      <point x="220" y="-33"/>
      <point x="354" y="-110"/>
      <point x="455" y="-110" type="curve" smooth="yes"/>
      <point x="547" y="-110"/>
      <point x="615" y="-45"/>
      <point x="658" y="30" type="curve"/>
    </contour>
  </outline>
</glyph>
<glyph name="dvShNa" format="1">
  <advance width="792"/>
  <outline>
    <contour>
      <point x="150" y="693"/>
      <point x="77" y="619"/>
      <point x="77" y="538" type="curve" smooth="yes"/>
      <point x="77" y="388"/>
      <point x="331" y="208"/>
      <point x="535" y="241" type="curve"/>
      <point x="546" y="372" type="line"/>
      <point x="415" y="319"/>
      <point x="240" y="368"/>
      <point x="240" y="479" type="curve" smooth="yes"/>
      <point x="240" y="537"/>
      <point x="288" y="580"/>
      <point x="331" y="549" type="curve"/>
      <point x="339" y="508"/>
      <point x="302" y="459"/>
      <point x="239" y="418" type="curve"/>
      <point x="215" y="401" type="line"/>
      <point x="15" y="280" type="line"/>
      <point x="129" y="149" type="line"/>
      <point x="315" y="267" type="line"/>
      <point x="334" y="278" type="line"/>
      <point x="398" y="326"/>
      <point x="451" y="394"/>
      <point x="451" y="477" type="curve" smooth="yes"/>
      <point x="451" y="592"/>
      <point x="352" y="693"/>
      <point x="243" y="693" type="curve" smooth="yes"/>
    </contour>
    <contour>
      <point x="832" y="538" type="line"/>
      <point x="857" y="587" type="line"/>
      <point x="792" y="670" type="line"/>
      <point x="496" y="670" type="line"/>
      <point x="471" y="621" type="line"/>
      <point x="536" y="538" type="line"/>
    </contour>
    <contour>
      <point x="536" y="23" type="line"/>
      <point x="668" y="-46" type="line"/>
      <point x="722" y="-19" type="line"/>
      <point x="722" y="486" type="line"/>
      <point x="602" y="568" type="line"/>
      <point x="536" y="599" type="line"/>
    </contour>
    <contour>
      <point x="194" y="50" type="line"/>
      <point x="247" y="-5"/>
      <point x="348" y="-47"/>
      <point x="430" y="-59" type="curve"/>
      <point x="466" y="-11" type="line"/>
      <point x="374" y="166" type="line"/>
      <point x="325" y="166" type="line"/>
      <point x="196" y="115" type="line"/>
    </contour>
    <contour>
      <point x="636" y="259" type="line"/>
      <point x="525" y="318" type="line"/>
      <point x="196" y="115" type="line"/>
      <point x="363" y="34" type="line"/>
      <point x="636" y="224" type="line"/>
    </contour>
  </outline>
</glyph>
<glyph name="dvShVa" format="1">
  <advance width="792"/>
  <outline>
    <contour>
      <point x="150" y="693"/>
      <point x="77" y="619"/>
      <point x="77" y="538" type="curve" smooth="yes"/>
      <point x="77" y="388"/>
      <point x="331" y="208"/>
      <point x="535" y="241" type="curve"/>
      <point x="556" y="362" type="line"/>
      <point x="424" y="309"/>
      <point x="240" y="368"/>
      <point x="240" y="480" type="curve" smooth="yes"/>
      <point x="240" y="537"/>
      <point x="288" y="580"/>
      <point x="331" y="549" type="curve"/>
      <point x="339" y="508"/>
      <point x="302" y="459"/>
      <point x="239" y="418" type="curve"/>
      <point x="215" y="401" type="line"/>
      <point x="15" y="280" type="line"/>
      <point x="129" y="149" type="line"/>
      <point x="315" y="267" type="line"/>
      <point x="334" y="278" type="line"/>
      <point x="398" y="326"/>
      <point x="451" y="394"/>
      <point x="451" y="477" type="curve" smooth="yes"/>
      <point x="451" y="592"/>
      <point x="352" y="693"/>
      <point x="243" y="693" type="curve" smooth="yes"/>
    </contour>
    <contour>
      <point x="832" y="538" type="line"/>
      <point x="857" y="587" type="line"/>
      <point x="792" y="670" type="line"/>
      <point x="496" y="670" type="line"/>
      <point x="471" y="621" type="line"/>
      <point x="536" y="538" type="line"/>
    </contour>
    <contour>
      <point x="536" y="-117" type="line"/>
      <point x="668" y="-186" type="line"/>
      <point x="722" y="-159" type="line"/>
      <point x="722" y="486" type="line"/>
      <point x="602" y="568" type="line"/>
      <point x="536" y="599" type="line"/>
    </contour>
    <contour>
      <point x="466" y="280" type="line"/>
      <point x="322" y="272"/>
      <point x="208" y="194"/>
      <point x="208" y="92" type="curve" smooth="yes"/>
      <point x="208" y="-11"/>
      <point x="323" y="-90"/>
      <point x="445" y="-90" type="curve" smooth="yes"/>
      <point x="554" y="-90"/>
      <point x="615" y="-26"/>
      <point x="654" y="62" type="curve"/>
      <point x="543" y="195" type="line"/>
      <point x="543" y="102"/>
      <point x="450" y="27"/>
      <point x="388" y="28" type="curve"/>
      <point x="380" y="38"/>
      <point x="377" y="49"/>
      <point x="377" y="60" type="curve" smooth="yes"/>
      <point x="377" y="122"/>
      <point x="474" y="209"/>
      <point x="597" y="185" type="curve"/>
      <point x="597" y="231" type="line"/>
    </contour>
  </outline>
</glyph>
<glyph name="dvSs" format="1">
  <advance width="368"/>
  <outline>
    <contour>
      <point x="493" y="538" type="line"/>
      <point x="518" y="587" type="line"/>
      <point x="453" y="670" type="line"/>
      <point x="-40" y="670" type="line"/>
      <point x="-65" y="621" type="line"/>
      <point x="0" y="538" type="line"/>
    </contour>
    <contour>
      <point x="126" y="616" type="line"/>
      <point x="379" y="240" type="line"/>
      <point x="445" y="271" type="line"/>
      <point x="196" y="642" type="line"/>
    </contour>
    <contour>
      <point x="422" y="369" type="line"/>
      <point x="398" y="302"/>
      <point x="330" y="256"/>
      <point x="272" y="256" type="curve" smooth="yes"/>
      <point x="260" y="256"/>
      <point x="240" y="258"/>
      <point x="227" y="263" type="curve"/>
      <point x="227" y="556" type="line"/>
      <point x="107" y="598" type="line"/>
      <point x="30" y="599" type="line"/>
      <point x="30" y="378" type="line" smooth="yes"/>
      <point x="30" y="250"/>
      <point x="201" y="103"/>
      <point x="346" y="103" type="curve" smooth="yes"/>
      <point x="420" y="103"/>
      <point x="493" y="142"/>
      <point x="537" y="217" type="curve"/>
    </contour>
  </outline>
</glyph>
<glyph name="dvSsTta" format="1">
  <advance width="653"/>
  <outline>
    <contour>
      <point x="537" y="63" type="line"/>
      <point x="465" y="-10"/>
      <point x="336" y="-61"/>
      <point x="252" y="-33" type="curve"/>
      <point x="241" y="-18"/>
      <point x="238" y="-8"/>
      <point x="238" y="5" type="curve" smooth="yes"/>
      <point x="238" y="76"/>
      <point x="324" y="65"/>
      <point x="408" y="98" type="curve" smooth="yes"/>
      <point x="497" y="133"/>
      <point x="575" y="212"/>
      <point x="575" y="331" type="curve"/>
      <point x="575" y="486" type="line"/>
      <point x="455" y="568" type="line"/>
      <point x="396" y="599" type="line"/>
      <point x="396" y="400" type="line" smooth="yes"/>
      <point x="396" y="270"/>
      <point x="363" y="236"/>
      <point x="313" y="228" type="curve"/>
      <point x="195" y="233" type="line"/>
      <point x="108" y="195"/>
      <point x="60" y="138"/>
      <point x="60" y="58" type="curve" smooth="yes"/>
      <point x="60" y="-89"/>
      <point x="224" y="-203"/>
      <point x="386" y="-203" type="curve" smooth="yes"/>
      <point x="472" y="-203"/>
      <point x="561" y="-171"/>
      <point x="638" y="-90" type="curve"/>
    </contour>
    <contour>
      <point x="693" y="538" type="line"/>
      <point x="718" y="587" type="line"/>
      <point x="653" y="670" type="line"/>
      <point x="-40" y="670" type="line"/>
      <point x="-65" y="621" type="line"/>
      <point x="0" y="538" type="line"/>
    </contour>
    <contour>
      <point x="136" y="616" type="line"/>
      <point x="389" y="200" type="line"/>
      <point x="455" y="231" type="line"/>
      <point x="206" y="642" type="line"/>
    </contour>
    <contour>
      <point x="396" y="400" type="line"/>
      <point x="396" y="280"/>
      <point x="342" y="236"/>
      <point x="274" y="236" type="curve" smooth="yes"/>
      <point x="259" y="236"/>
      <point x="244" y="238"/>
      <point x="232" y="243" type="curve"/>
      <point x="232" y="558" type="line"/>
      <point x="158" y="598" type="line"/>
      <point x="40" y="599" type="line"/>
      <point x="40" y="378" type="line" smooth="yes"/>
      <point x="40" y="280"/>
      <point x="150" y="170"/>
      <point x="255" y="125" type="curve"/>
      <point x="505" y="310" type="line"/>
    </contour>
  </outline>
</glyph>
<glyph name="dvSsTtha" format="1">
  <advance width="653"/>
  <outline>
    <contour>
      <point x="506" y="-203"/>
      <point x="609" y="-131"/>
      <point x="609" y="-17" type="curve" smooth="yes"/>
      <point x="609" y="75"/>
      <point x="542" y="170"/>
      <point x="422" y="208" type="curve"/>
      <point x="385" y="151" type="line"/>
      <point x="435" y="111"/>
      <point x="456" y="79"/>
      <point x="456" y="47" type="curve" smooth="yes"/>
      <point x="456" y="-28"/>
      <point x="339" y="-83"/>
      <point x="249" y="-42" type="curve"/>
      <point x="239" y="-28"/>
      <point x="234" y="-20"/>
      <point x="234" y="-3" type="curve" smooth="yes"/>
      <point x="234" y="79"/>
      <point x="349" y="81"/>
      <point x="408" y="98" type="curve" smooth="yes"/>
      <point x="500" y="125"/>
      <point x="575" y="228"/>
      <point x="575" y="341" type="curve"/>
      <point x="575" y="486" type="line"/>
      <point x="455" y="568" type="line"/>
      <point x="396" y="599" type="line"/>
      <point x="396" y="400" type="line" smooth="yes"/>
      <point x="396" y="270"/>
      <point x="363" y="236"/>
      <point x="313" y="228" type="curve"/>
      <point x="195" y="233" type="line"/>
      <point x="115" y="198"/>
      <point x="60" y="144"/>
      <point x="60" y="57" type="curve" smooth="yes"/>
      <point x="60" y="-95"/>
      <point x="227" y="-203"/>
      <point x="380" y="-203" type="curve" smooth="yes"/>
    </contour>
    <contour>
      <point x="693" y="538" type="line"/>
      <point x="718" y="587" type="line"/>
      <point x="653" y="670" type="line"/>
      <point x="-40" y="670" type="line"/>
      <point x="-65" y="621" type="line"/>
      <point x="0" y="538" type="line"/>
    </contour>
    <contour>
      <point x="136" y="616" type="line"/>
      <point x="389" y="200" type="line"/>
      <point x="455" y="231" type="line"/>
      <point x="206" y="642" type="line"/>
    </contour>
    <contour>
      <point x="396" y="400" type="line"/>
      <point x="396" y="280"/>
      <point x="342" y="236"/>
      <point x="274" y="236" type="curve" smooth="yes"/>
      <point x="259" y="236"/>
      <point x="244" y="238"/>
      <point x="232" y="243" type="curve"/>
      <point x="232" y="558" type="line"/>
      <point x="158" y="598" type="line"/>
      <point x="40" y="599" type="line"/>
      <point x="40" y="378" type="line" smooth="yes"/>
      <point x="40" y="280"/>
      <point x="150" y="170"/>
      <point x="255" y="125" type="curve"/>
      <point x="470" y="258" type="line"/>
    </contour>
  </outline>
</glyph>
<glyph name="dvT" format="1">
  <advance width="360"/>
  <outline>
    <contour>
      <point x="457" y="418" type="line"/>
      <point x="387" y="441"/>
      <point x="334" y="456"/>
      <point x="257" y="456" type="curve"/>
      <point x="104" y="456"/>
      <point x="21" y="372"/>
      <point x="21" y="272" type="curve" smooth="yes"/>
      <point x="21" y="171"/>
      <point x="105" y="65"/>
      <point x="224" y="-48" type="curve"/>
      <point x="322" y="35" type="line"/>
      <point x="262" y="95"/>
      <point x="216" y="156"/>
      <point x="216" y="200" type="curve" smooth="yes"/>
      <point x="216" y="242"/>
      <point x="257" y="279"/>
      <point x="318" y="279" type="curve"/>
      <point x="360" y="279"/>
      <point x="392" y="268"/>
      <point x="434" y="255" type="curve"/>
    </contour>
    <contour>
      <point x="425" y="538" type="line"/>
      <point x="450" y="587" type="line"/>
      <point x="385" y="670" type="line"/>
      <point x="-40" y="670" type="line"/>
      <point x="-65" y="621" type="line"/>
      <point x="0" y="538" type="line"/>
    </contour>
  </outline>
</glyph>
<glyph name="dvTRa.alt" format="1">
  <advance width="665"/>
  <outline>
    <contour>
      <point x="92" y="158" type="line"/>
      <point x="220" y="8" type="line"/>
      <point x="457" y="201" type="line"/>
      <point x="340" y="326" type="line" smooth="yes"/>
    </contour>
    <contour>
      <point x="110" y="249" type="line"/>
      <point x="197" y="310"/>
      <point x="239" y="340"/>
      <point x="274" y="340" type="curve" smooth="yes"/>
      <point x="294" y="340"/>
      <point x="317" y="330"/>
      <point x="341" y="306" type="curve" smooth="yes"/>
      <point x="425" y="222" type="line"/>
      <point x="422" y="354" type="line"/>
      <point x="345" y="427" type="line" smooth="yes"/>
      <point x="285" y="485"/>
      <point x="234" y="508"/>
      <point x="185" y="508" type="curve" smooth="yes"/>
      <point x="125" y="508"/>
      <point x="67" y="474"/>
      <point x="-3" y="422" type="curve"/>
    </contour>
    <contour>
      <point x="705" y="538" type="line"/>
      <point x="730" y="587" type="line"/>
      <point x="665" y="670" type="line"/>
      <point x="-50" y="670" type="line"/>
      <point x="-75" y="621" type="line"/>
      <point x="-10" y="538" type="line"/>
    </contour>
    <contour>
      <point x="409" y="23" type="line"/>
      <point x="541" y="-46" type="line"/>
      <point x="595" y="-19" type="line"/>
      <point x="595" y="486" type="line"/>
      <point x="475" y="568" type="line"/>
      <point x="409" y="599" type="line"/>
    </contour>
  </outline>
</glyph>
<glyph name="dvTRa" format="1">
  <advance width="665"/>
  <outline>
    <contour>
      <point x="454" y="335" type="line" smooth="yes"/>
      <point x="144" y="69" type="line"/>
      <point x="245" y="4" type="line"/>
      <point x="500" y="226" type="line"/>
    </contour>
    <contour>
      <point x="427" y="456" type="line"/>
      <point x="247" y="456" type="line" smooth="yes"/>
      <point x="94" y="456"/>
      <point x="21" y="370"/>
      <point x="21" y="276" type="curve" smooth="yes"/>
      <point x="21" y="169"/>
      <point x="115" y="49"/>
      <point x="236" y="-64" type="curve"/>
      <point x="334" y="19" type="line"/>
      <point x="274" y="79"/>
      <point x="216" y="154"/>
      <point x="216" y="204" type="curve" smooth="yes"/>
      <point x="216" y="240"/>
      <point x="247" y="279"/>
      <point x="308" y="279" type="curve" smooth="yes"/>
      <point x="438" y="279" type="line"/>
    </contour>
    <contour>
      <point x="705" y="538" type="line"/>
      <point x="730" y="587" type="line"/>
      <point x="665" y="670" type="line"/>
      <point x="-40" y="670" type="line"/>
      <point x="-65" y="621" type="line"/>
      <point x="0" y="538" type="line"/>
    </contour>
    <contour>
      <point x="409" y="23" type="line"/>
      <point x="541" y="-46" type="line"/>
      <point x="595" y="-19" type="line"/>
      <point x="595" y="486" type="line"/>
      <point x="475" y="568" type="line"/>
      <point x="409" y="599" type="line"/>
    </contour>
  </outline>
</glyph>
<glyph name="dvYa.post" format="1">
  <advance width="711"/>
  <outline>
    <contour>
      <point x="751" y="538" type="line"/>
      <point x="776" y="587" type="line"/>
      <point x="711" y="670" type="line"/>
      <point x="-10" y="670" type="line"/>
      <point x="-35" y="621" type="line"/>
      <point x="30" y="538" type="line"/>
    </contour>
    <contour>
      <point x="455" y="-27" type="line"/>
      <point x="587" y="-96" type="line"/>
      <point x="641" y="-69" type="line"/>
      <point x="641" y="486" type="line"/>
      <point x="521" y="568" type="line"/>
      <point x="455" y="599" type="line"/>
    </contour>
    <contour>
      <point x="73" y="224" type="line"/>
      <point x="169" y="135" type="line"/>
      <point x="337" y="138"/>
      <point x="414" y="197"/>
      <point x="414" y="271" type="curve" smooth="yes"/>
      <point x="414" y="359"/>
      <point x="304" y="495"/>
      <point x="153" y="495" type="curve"/>
      <point x="116" y="333" type="line"/>
      <point x="182" y="333"/>
      <point x="239" y="336"/>
      <point x="239" y="313" type="curve" smooth="yes"/>
      <point x="239" y="290"/>
      <point x="179" y="281"/>
      <point x="94" y="276" type="curve"/>
    </contour>
    <contour>
      <point x="73" y="224" type="line"/>
      <point x="150" y="60"/>
      <point x="263" y="-7"/>
      <point x="374" y="-7" type="curve" smooth="yes"/>
      <point x="433" y="-7"/>
      <point x="476" y="12"/>
      <point x="528" y="56" type="curve"/>
      <point x="467" y="239" type="line"/>
      <point x="439" y="170"/>
      <point x="357" y="125"/>
      <point x="278" y="117" type="curve"/>
      <point x="264" y="140"/>
      <point x="242" y="193"/>
      <point x="238" y="219" type="curve"/>
    </contour>
    <contour>
      <point x="116" y="333" type="line"/>
      <point x="153" y="495" type="line"/>
      <point x="-194" y="495" type="line"/>
      <point x="-219" y="436" type="line"/>
      <point x="-154" y="333" type="line"/>
    </contour>
  </outline>
</glyph>
